<svg width="486" height="371" viewBox="0 0 486 371" fill="none" xmlns="http://www.w3.org/2000/svg">
<g clip-path="url(#clip0_1708_6946)">
<path d="M449.496 0.320557H230.007C225.555 0.320557 221.947 3.94312 221.947 8.41178V211.124C221.947 215.593 225.555 219.215 230.007 219.215H449.496C453.948 219.215 457.556 215.593 457.556 211.124V8.41178C457.556 3.94312 453.948 0.320557 449.496 0.320557Z" fill="white"/>
<path d="M449.496 219.215C449.496 219.215 449.693 219.191 450.074 219.166C450.455 219.141 451.032 219.055 451.757 218.845C452.482 218.623 453.367 218.241 454.264 217.563C455.16 216.884 456.082 215.91 456.709 214.565C457.409 213.233 457.544 211.544 457.483 209.706C457.483 207.868 457.483 205.845 457.47 203.662C457.47 199.296 457.458 194.251 457.446 188.577C457.421 165.87 457.384 133.036 457.347 92.4693C457.347 72.1796 457.323 49.9533 457.311 26.099C457.311 20.1416 457.286 14.0855 457.274 7.91843C457.126 4.93356 455.074 2.12136 452.224 1.08529C450.811 0.49325 449.275 0.591924 447.69 0.591924C446.117 0.591924 444.545 0.591924 442.96 0.591924C430.304 0.591924 417.268 0.591924 403.913 0.604258C350.466 0.604258 291.711 0.616592 230.044 0.628927C228.188 0.628927 226.358 1.30731 224.957 2.52839C223.556 3.73714 222.61 5.46393 222.365 7.28939C222.242 8.18978 222.291 9.16418 222.279 10.1263V13.0001C222.279 14.9119 222.279 16.836 222.279 18.7478C222.279 26.395 222.279 33.9929 222.279 41.5291C222.279 56.6015 222.279 71.4642 222.279 86.0678C222.279 115.263 222.266 143.434 222.254 170.261C222.254 183.681 222.254 196.755 222.242 209.459C222.242 210.248 222.217 211.062 222.279 211.815C222.365 212.567 222.512 213.332 222.807 214.035C223.372 215.453 224.355 216.675 225.596 217.538C226.837 218.401 228.311 218.882 229.81 218.919C231.358 218.919 232.894 218.919 234.43 218.932C240.573 218.932 246.618 218.932 252.553 218.932C276.315 218.944 298.456 218.956 318.668 218.969C359.079 219.018 391.786 219.043 414.405 219.067C425.697 219.092 434.47 219.117 440.429 219.129C443.402 219.141 445.663 219.154 447.199 219.166C448.722 219.166 449.509 219.203 449.509 219.203C449.509 219.203 448.722 219.228 447.199 219.24C445.663 219.24 443.402 219.252 440.429 219.277C434.47 219.289 425.697 219.314 414.405 219.339C391.798 219.363 359.091 219.4 318.668 219.437C298.456 219.437 276.315 219.462 252.553 219.474C246.606 219.474 240.573 219.474 234.43 219.474C232.894 219.474 231.346 219.474 229.798 219.474C228.201 219.437 226.603 218.919 225.276 217.994C223.95 217.069 222.893 215.762 222.291 214.245C221.971 213.492 221.812 212.678 221.726 211.864C221.664 211.038 221.701 210.261 221.689 209.459C221.689 196.755 221.689 183.668 221.676 170.261C221.676 143.434 221.676 115.275 221.652 86.0678C221.652 71.4642 221.652 56.6138 221.652 41.5291C221.652 33.9929 221.652 26.395 221.652 18.7478C221.652 16.836 221.652 14.9242 221.652 13.0001V10.1263C221.652 9.16418 221.603 8.21445 221.75 7.20305C222.02 5.21724 223.028 3.34245 224.552 2.04736C226.063 0.7276 228.053 -0.0124512 230.056 -0.0124512C291.723 -0.0124512 350.478 -0.000116985 403.925 0.0122172C417.281 0.0122172 430.317 0.0122172 442.972 0.0245514C444.557 0.0245514 446.13 0.0245514 447.702 0.0245514C449.238 0.0245514 450.922 -0.0741221 452.433 0.567256C455.48 1.67733 457.679 4.68687 457.827 7.88143C457.827 14.0485 457.827 20.1169 457.839 26.0867C457.827 49.941 457.814 72.1672 457.802 92.4569C457.765 133.024 457.728 165.87 457.704 188.565C457.704 194.239 457.679 199.271 457.679 203.65C457.679 205.833 457.679 207.843 457.667 209.693C457.728 211.519 457.569 213.27 456.856 214.615C456.217 215.984 455.271 216.971 454.362 217.637C453.44 218.315 452.543 218.685 451.818 218.895C451.081 219.092 450.504 219.166 450.111 219.178C449.73 219.191 449.533 219.191 449.533 219.191L449.496 219.215Z" fill="#263238"/>
<path d="M239.726 15.4917C239.726 17.7488 237.907 19.5743 235.646 19.5743C233.386 19.5743 231.58 17.7488 231.58 15.4917C231.58 13.2345 233.398 11.3967 235.646 11.3967C237.895 11.3967 239.726 13.2222 239.726 15.4917Z" fill="#263238"/>
<path d="M247.552 19.5742C249.798 19.5742 251.619 17.7463 251.619 15.4916C251.619 13.2368 249.798 11.4089 247.552 11.4089C245.306 11.4089 243.485 13.2368 243.485 15.4916C243.485 17.7463 245.306 19.5742 247.552 19.5742Z" fill="#263238"/>
<path d="M259.446 19.5742C261.692 19.5742 263.513 17.7463 263.513 15.4916C263.513 13.2368 261.692 11.4089 259.446 11.4089C257.2 11.4089 255.379 13.2368 255.379 15.4916C255.379 17.7463 257.2 19.5742 259.446 19.5742Z" fill="#263238"/>
<path d="M457.556 27.0858C457.556 27.2585 404.81 27.4065 339.764 27.4065C274.718 27.4065 221.959 27.2585 221.959 27.0858C221.959 26.9131 274.694 26.7651 339.764 26.7651C404.834 26.7651 457.556 26.9131 457.556 27.0858Z" fill="#263238"/>
<path d="M373.036 109.552C373.036 109.552 373.134 109.416 373.319 109.17C373.368 109.108 373.417 109.034 373.479 108.96C373.528 108.874 373.577 108.787 373.638 108.689C373.749 108.491 373.896 108.257 373.995 107.973C374.056 107.838 374.117 107.69 374.179 107.529C374.228 107.369 374.277 107.196 374.326 107.011C374.388 106.826 374.412 106.641 374.449 106.432C374.474 106.222 374.535 106.025 374.535 105.79C374.633 104.902 374.572 103.866 374.4 102.719C374.044 100.425 373.073 97.7236 371.599 94.7881C370.112 91.8402 368.072 88.6827 365.566 85.3771C363.059 82.0716 360.049 78.6673 356.572 75.2384C353.107 71.8218 349.175 68.3806 344.777 65.1244C342.577 63.4963 340.255 61.9175 337.798 60.4374C335.353 58.945 332.773 57.5635 330.045 56.3548C327.33 55.1707 324.455 54.1346 321.42 53.6413C319.909 53.4069 318.348 53.2959 316.825 53.5302C316.063 53.6536 315.313 53.8633 314.601 54.1716C313.9 54.517 313.261 54.961 312.733 55.5407C312.229 56.1328 311.848 56.8235 311.59 57.5512C311.357 58.2912 311.234 59.0683 311.197 59.8454C311.136 61.3995 311.431 62.9412 311.836 64.4213C312.659 67.3815 314.011 70.1321 315.498 72.7099C316.997 75.2878 318.668 77.7052 320.412 79.9747C322.157 82.2442 323.988 84.3904 325.843 86.4009C329.566 90.4218 333.412 93.9494 337.196 97.0206C340.98 100.092 344.703 102.707 348.254 104.828C351.805 106.95 355.171 108.627 358.255 109.774C361.327 110.921 364.116 111.575 366.426 111.674C367.581 111.723 368.613 111.661 369.473 111.464C369.694 111.427 369.891 111.353 370.087 111.304C370.284 111.254 370.481 111.193 370.64 111.119C370.812 111.045 370.984 110.983 371.132 110.921C371.279 110.847 371.427 110.761 371.562 110.687C371.832 110.551 372.041 110.379 372.238 110.243C372.324 110.169 372.422 110.119 372.496 110.058C372.569 109.996 372.631 109.934 372.68 109.873C372.901 109.651 373.024 109.552 373.024 109.552C373.024 109.552 372.913 109.663 372.692 109.885C372.631 109.947 372.569 110.008 372.508 110.07C372.434 110.132 372.348 110.193 372.25 110.268C372.066 110.403 371.857 110.576 371.586 110.712C371.451 110.786 371.316 110.872 371.156 110.946C370.997 111.008 370.837 111.082 370.653 111.156C370.481 111.23 370.296 111.291 370.087 111.341C369.891 111.39 369.682 111.476 369.461 111.501C368.588 111.698 367.556 111.772 366.389 111.723C364.067 111.637 361.266 110.995 358.182 109.848C355.085 108.713 351.719 107.048 348.156 104.927C344.592 102.805 340.87 100.19 337.073 97.1193C333.289 94.048 329.431 90.5205 325.696 86.4995C323.828 84.489 321.997 82.3429 320.253 80.0611C318.496 77.7916 316.825 75.3618 315.313 72.7839C313.827 70.1937 312.463 67.4432 311.627 64.446C311.222 62.9536 310.927 61.3995 310.988 59.8207C311.013 59.0313 311.148 58.2419 311.382 57.4772C311.652 56.7248 312.033 56.0094 312.561 55.405C313.102 54.813 313.765 54.3443 314.478 53.9989C315.203 53.6659 315.977 53.4562 316.751 53.3329C318.311 53.0986 319.884 53.2096 321.408 53.4439C324.455 53.9373 327.342 54.9857 330.07 56.1698C332.797 57.3785 335.39 58.7723 337.835 60.2647C340.292 61.7571 342.614 63.3359 344.826 64.964C349.237 68.2326 353.169 71.6738 356.633 75.1027C360.098 78.5316 363.109 81.9605 365.615 85.2661C368.122 88.5717 370.161 91.7539 371.636 94.7141C373.11 97.662 374.081 100.375 374.425 102.682C374.597 103.829 374.646 104.877 374.547 105.766C374.547 105.988 374.486 106.197 374.449 106.407C374.412 106.617 374.388 106.802 374.326 106.987C374.277 107.172 374.228 107.344 374.179 107.505C374.117 107.665 374.056 107.813 373.995 107.961C373.884 108.245 373.749 108.479 373.626 108.676C373.565 108.775 373.515 108.874 373.466 108.948C373.405 109.022 373.356 109.096 373.306 109.157C373.11 109.404 373.012 109.527 373.012 109.527L373.036 109.552Z" fill="#CE0500"/>
<path d="M384.193 82.5158C384.193 82.5158 384.18 82.3554 384.156 82.0471C384.156 81.9731 384.143 81.8867 384.131 81.788C384.119 81.6894 384.094 81.5907 384.07 81.4797C384.02 81.2577 383.971 80.9863 383.861 80.7026C383.812 80.5546 383.762 80.4066 383.701 80.2463C383.627 80.0983 383.541 79.9379 383.468 79.7652C383.394 79.5926 383.283 79.4322 383.173 79.2595C383.062 79.0869 382.964 78.9018 382.816 78.7292C382.3 78.0015 381.563 77.2737 380.678 76.5337C378.897 75.0536 376.378 73.6845 373.319 72.4881C370.259 71.2793 366.635 70.2802 362.58 69.4909C358.526 68.7015 354.004 68.1711 349.151 67.9368C344.298 67.7024 339.088 67.7641 333.645 68.2821C330.93 68.5411 328.141 68.9235 325.327 69.4415C322.513 69.9719 319.663 70.6503 316.837 71.5753C314.023 72.5127 311.185 73.6598 308.605 75.3126C307.327 76.1513 306.086 77.1011 305.103 78.2975C304.612 78.9018 304.194 79.5556 303.874 80.2586C303.58 80.974 303.408 81.7387 303.395 82.5281C303.408 83.3052 303.58 84.0822 303.874 84.7976C304.194 85.513 304.612 86.1667 305.103 86.7711C306.086 87.9675 307.327 88.9295 308.605 89.7559C311.185 91.421 314.023 92.5558 316.837 93.4932C319.663 94.4183 322.513 95.109 325.327 95.627C328.141 96.1574 330.917 96.5274 333.645 96.7864C339.088 97.3045 344.298 97.3538 349.163 97.1318C354.016 96.8974 358.526 96.367 362.592 95.5777C366.647 94.7883 370.272 93.7892 373.331 92.5805C376.39 91.384 378.897 90.0149 380.691 88.5348C381.575 87.7948 382.313 87.0671 382.829 86.3394C382.976 86.1667 383.074 85.9693 383.185 85.809C383.296 85.6363 383.406 85.476 383.48 85.3033C383.566 85.1306 383.64 84.9703 383.713 84.8223C383.775 84.6619 383.824 84.5139 383.873 84.3659C383.984 84.0822 384.033 83.8108 384.082 83.5888C384.107 83.4778 384.131 83.3668 384.143 83.2805C384.143 83.1818 384.156 83.0955 384.168 83.0215C384.193 82.7131 384.205 82.5528 384.205 82.5528C384.205 82.5528 384.205 82.7131 384.18 83.0215C384.18 83.0955 384.18 83.1941 384.168 83.2805C384.168 83.3791 384.131 83.4778 384.106 83.6012C384.057 83.8232 384.02 84.0945 383.91 84.3782C383.861 84.5262 383.812 84.6742 383.75 84.8346C383.676 84.9949 383.603 85.1553 383.517 85.3156C383.443 85.4883 383.332 85.661 383.222 85.8337C383.111 86.0063 383.013 86.2037 382.866 86.3764C382.349 87.1164 381.625 87.8565 380.728 88.5965C378.946 90.089 376.427 91.4704 373.368 92.6791C370.309 93.9002 366.684 94.9116 362.617 95.701C358.55 96.5027 354.041 97.0331 349.175 97.2798C344.31 97.5141 339.1 97.4648 333.645 96.9591C330.917 96.7001 328.128 96.33 325.315 95.7997C322.501 95.2816 319.638 94.5909 316.8 93.6659C313.974 92.7285 311.136 91.5814 308.519 89.9039C307.229 89.0652 305.975 88.1031 304.968 86.8821C304.464 86.2777 304.034 85.5993 303.715 84.8716C303.42 84.1315 303.235 83.3422 303.223 82.5281C303.235 81.7264 303.42 80.9247 303.727 80.1846C304.046 79.4569 304.489 78.7785 304.98 78.1741C305.988 76.953 307.241 75.991 308.531 75.1523C311.136 73.4871 313.974 72.3277 316.8 71.4027C319.638 70.4776 322.489 69.7869 325.315 69.2688C328.128 68.7385 330.917 68.3685 333.645 68.1094C339.1 67.6037 344.31 67.5421 349.175 67.7887C354.041 68.0354 358.55 68.5781 362.617 69.3675C366.684 70.1692 370.309 71.1806 373.368 72.3894C376.427 73.5981 378.946 74.9796 380.728 76.472C381.625 77.2121 382.349 77.9521 382.866 78.6922C383.013 78.8648 383.111 79.0622 383.222 79.2349C383.332 79.4075 383.443 79.5802 383.517 79.7529C383.603 79.9256 383.676 80.0859 383.75 80.2339C383.812 80.3943 383.861 80.5546 383.91 80.6903C384.02 80.974 384.07 81.2453 384.106 81.4674C384.131 81.5784 384.156 81.6894 384.168 81.788C384.168 81.8867 384.168 81.9731 384.18 82.0471C384.205 82.3554 384.205 82.5158 384.205 82.5158H384.193Z" fill="#CE0500"/>
<path d="M369.412 48.8803C369.412 48.8803 369.276 48.794 369.018 48.6213C368.957 48.5843 368.883 48.535 368.797 48.4733C368.711 48.424 368.613 48.3869 368.515 48.3376C368.306 48.2389 368.072 48.1156 367.777 48.0293C367.63 47.9799 367.483 47.9306 367.323 47.8812C367.151 47.8442 366.979 47.8072 366.795 47.7702C366.61 47.7209 366.414 47.7086 366.217 47.6962C366.008 47.6839 365.799 47.6469 365.578 47.6469C364.694 47.6099 363.661 47.7456 362.543 47.9923C360.283 48.498 357.666 49.6574 354.852 51.3472C352.026 53.0369 349.028 55.2941 345.919 58.0323C342.811 60.7705 339.629 64.0267 336.471 67.7269C333.313 71.4395 330.168 75.6085 327.231 80.2461C325.769 82.565 324.356 84.9948 323.054 87.5603C321.739 90.1135 320.547 92.79 319.54 95.6022C318.545 98.4144 317.722 101.362 317.439 104.421C317.316 105.951 317.304 107.517 317.648 109.034C317.82 109.787 318.078 110.527 318.446 111.217C318.827 111.896 319.331 112.5 319.933 112.993C320.56 113.462 321.272 113.795 322.01 114.005C322.759 114.19 323.533 114.264 324.307 114.239C325.855 114.19 327.367 113.795 328.804 113.289C331.691 112.253 334.333 110.712 336.79 109.046C339.248 107.369 341.533 105.531 343.671 103.619C345.809 101.708 347.812 99.7342 349.679 97.736C353.414 93.7274 356.658 89.6325 359.447 85.6362C362.236 81.6399 364.583 77.73 366.451 74.0297C368.318 70.3295 369.743 66.8389 370.677 63.6813C371.599 60.5238 372.066 57.6869 372.004 55.3681C371.967 54.2087 371.844 53.1849 371.586 52.3216C371.537 52.0995 371.451 51.9022 371.39 51.7172C371.328 51.5198 371.255 51.3348 371.169 51.1745C371.083 51.0018 371.009 50.8414 370.935 50.6934C370.849 50.5454 370.763 50.4098 370.677 50.2864C370.53 50.0151 370.345 49.8177 370.198 49.645C370.124 49.5587 370.063 49.4724 369.989 49.3984C369.915 49.3367 369.854 49.275 369.793 49.2257C369.559 49.016 369.448 48.905 369.448 48.905C369.448 48.905 369.571 49.0037 369.805 49.2133C369.866 49.2627 369.928 49.3243 370.001 49.386C370.075 49.46 370.137 49.534 370.21 49.6204C370.358 49.793 370.542 49.9904 370.702 50.2617C370.788 50.3851 370.874 50.5208 370.96 50.6688C371.033 50.8168 371.119 50.9895 371.193 51.1498C371.279 51.3102 371.353 51.5075 371.414 51.6925C371.476 51.8899 371.574 52.0872 371.623 52.3092C371.881 53.1726 372.016 54.1963 372.066 55.3681C372.152 57.6993 371.697 60.5485 370.775 63.7183C369.854 66.8882 368.429 70.3911 366.573 74.1037C364.706 77.8163 362.371 81.7263 359.582 85.7349C356.793 89.7435 353.549 93.8507 349.814 97.8594C347.947 99.8698 345.944 101.843 343.794 103.755C341.656 105.667 339.358 107.517 336.901 109.194C334.431 110.872 331.79 112.414 328.878 113.462C327.428 113.968 325.892 114.375 324.319 114.424C323.533 114.449 322.735 114.375 321.96 114.19C321.199 113.98 320.461 113.635 319.81 113.154C319.184 112.648 318.668 112.019 318.274 111.328C317.894 110.625 317.636 109.873 317.464 109.096C317.119 107.554 317.132 105.963 317.255 104.433C317.537 101.338 318.373 98.3897 319.368 95.5652C320.375 92.753 321.58 90.0642 322.894 87.511C324.209 84.9455 325.622 82.5156 327.084 80.1968C330.02 75.5592 333.178 71.3902 336.348 67.6776C339.518 63.965 342.713 60.7211 345.833 57.9829C348.954 55.2448 351.965 52.9876 354.803 51.3101C357.629 49.6204 360.258 48.4733 362.531 47.9676C363.661 47.7209 364.694 47.5852 365.59 47.6346C365.812 47.6346 366.033 47.6716 366.229 47.6839C366.438 47.6962 366.635 47.7209 366.819 47.7702C367.003 47.8072 367.175 47.8442 367.347 47.8812C367.507 47.9306 367.667 47.9923 367.802 48.0293C368.097 48.1156 368.33 48.2389 368.539 48.3499C368.638 48.3993 368.736 48.4486 368.822 48.498C368.908 48.5473 368.969 48.5966 369.043 48.646C369.301 48.8186 369.436 48.9173 369.436 48.9173L369.412 48.8803Z" fill="#CE0500"/>
<path d="M302.842 99.2778C303.432 99.8698 303.432 100.82 302.842 101.412C302.253 102.004 301.306 102.004 300.717 101.412C300.127 100.82 300.127 99.8698 300.717 99.2778C301.306 98.6857 302.253 98.6857 302.842 99.2778Z" fill="#CE0500"/>
<path d="M387.608 52.5436C387.608 53.3823 386.932 54.0484 386.109 54.0484C385.286 54.0484 384.61 53.37 384.61 52.5436C384.61 51.7172 385.286 51.0388 386.109 51.0388C386.932 51.0388 387.608 51.7172 387.608 52.5436Z" fill="#CE0500"/>
<path d="M312.328 104.236C312.328 104.446 312.156 104.618 311.947 104.618C311.738 104.618 311.566 104.446 311.566 104.236C311.566 104.026 311.738 103.854 311.947 103.854C312.156 103.854 312.328 104.026 312.328 104.236Z" fill="#CE0500"/>
<path d="M320.486 61.9793C320.486 62.189 320.314 62.3616 320.105 62.3616C319.896 62.3616 319.724 62.189 319.724 61.9793C319.724 61.7696 319.896 61.5969 320.105 61.5969C320.314 61.5969 320.486 61.7696 320.486 61.9793Z" fill="#CE0500"/>
<path d="M380.064 82.5157C380.064 82.7253 379.892 82.898 379.683 82.898C379.474 82.898 379.302 82.7253 379.302 82.5157C379.302 82.306 379.474 82.1333 379.683 82.1333C379.892 82.1333 380.064 82.306 380.064 82.5157Z" fill="#CE0500"/>
<path d="M385.372 64.6558C385.372 64.8655 385.2 65.0382 384.991 65.0382C384.782 65.0382 384.61 64.8655 384.61 64.6558C384.61 64.4461 384.782 64.2734 384.991 64.2734C385.2 64.2734 385.372 64.4461 385.372 64.6558Z" fill="#CE0500"/>
<path d="M359.631 90.9523H354.913V65.1492C354.913 59.0808 349.986 54.1348 343.941 54.1348C337.896 54.1348 332.969 59.0808 332.969 65.1492V90.9523H328.251V65.1492C328.251 56.4659 335.291 49.3984 343.941 49.3984C352.591 49.3984 359.631 56.4659 359.631 65.1492V90.9523Z" fill="#CE0500"/>
<g opacity="0.3">
<path d="M359.631 90.9523H354.913V65.1492C354.913 59.0808 349.986 54.1348 343.941 54.1348C337.896 54.1348 332.969 59.0808 332.969 65.1492V90.9523H328.251V65.1492C328.251 56.4659 335.291 49.3984 343.941 49.3984C352.591 49.3984 359.631 56.4659 359.631 65.1492V90.9523Z" fill="black"/>
</g>
<path d="M362.322 79.4692H325.56C324.034 79.4692 322.796 80.7117 322.796 82.2444V103.928C322.796 105.461 324.034 106.703 325.56 106.703H362.322C363.849 106.703 365.087 105.461 365.087 103.928V82.2444C365.087 80.7117 363.849 79.4692 362.322 79.4692Z" fill="#CE0500"/>
<g opacity="0.3">
<path d="M347.48 89.5461C347.48 87.585 345.895 85.9939 343.941 85.9939C341.988 85.9939 340.403 87.585 340.403 89.5461C340.403 91.1619 341.496 92.5187 342.971 92.938V98.2417H344.9V92.938C346.374 92.5187 347.468 91.1619 347.468 89.5461H347.48Z" fill="black"/>
</g>
<path d="M325.057 104.125C324.958 104.125 324.885 99.5862 324.885 93.9865C324.885 88.3868 324.958 83.8354 325.057 83.8354C325.155 83.8354 325.229 88.3744 325.229 93.9865C325.229 99.5985 325.155 104.125 325.057 104.125Z" fill="#EBEBEB"/>
<path d="M341.177 94.0976C341.177 94.0976 341.017 94.0482 340.759 93.8632C340.513 93.6782 340.182 93.3822 339.85 92.9258C339.186 92.0624 338.584 90.4837 338.977 88.7816C339.383 87.0794 340.636 85.9447 341.607 85.4637C342.098 85.217 342.528 85.0936 342.835 85.0443C343.143 84.995 343.315 84.995 343.315 85.0196C343.327 85.0813 342.639 85.1553 341.73 85.6857C340.833 86.1914 339.702 87.2891 339.322 88.8679C338.953 90.4343 339.481 91.9268 340.059 92.7902C340.636 93.6782 341.226 94.0482 341.177 94.0976Z" fill="#EBEBEB"/>
<path d="M406.726 130.052H276.524C270.2 130.052 265.073 135.198 265.073 141.547V142.953C265.073 149.302 270.2 154.449 276.524 154.449H406.726C413.051 154.449 418.177 149.302 418.177 142.953V141.547C418.177 135.198 413.051 130.052 406.726 130.052Z" fill="#EBEBEB"/>
<path d="M407.844 163.514H277.642C271.318 163.514 266.191 168.661 266.191 175.01V176.416C266.191 182.764 271.318 187.911 277.642 187.911H407.844C414.169 187.911 419.296 182.764 419.296 176.416V175.01C419.296 168.661 414.169 163.514 407.844 163.514Z" fill="#EBEBEB"/>
<path d="M308.04 175.836L310.313 177.069L309.293 178.784L306.995 177.427L307.032 179.968H305.066L305.091 177.415L302.793 178.796L301.786 177.082L304.059 175.848L301.786 174.59L302.793 172.876L305.091 174.257L305.066 171.704H307.032L306.995 174.257L309.293 172.876L310.313 174.59L308.04 175.848V175.836Z" fill="#263238"/>
<path d="M317.5 175.836L319.773 177.069L318.754 178.784L316.456 177.427L316.493 179.968H314.527L314.552 177.415L312.254 178.796L311.246 177.082L313.519 175.848L311.246 174.59L312.254 172.876L314.552 174.257L314.527 171.704H316.493L316.456 174.257L318.754 172.876L319.773 174.59L317.5 175.848V175.836Z" fill="#263238"/>
<path d="M326.973 175.836L329.246 177.069L328.227 178.784L325.929 177.427L325.966 179.968H324L324.025 177.415L321.727 178.796L320.719 177.082L322.993 175.848L320.719 174.59L321.727 172.876L324.025 174.257L324 171.704H325.966L325.929 174.257L328.227 172.876L329.246 174.59L326.973 175.848V175.836Z" fill="#263238"/>
<path d="M336.446 175.836L338.719 177.069L337.7 178.784L335.402 177.427L335.439 179.968H333.473L333.498 177.415L331.2 178.796L330.192 177.082L332.466 175.848L330.192 174.59L331.2 172.876L333.498 174.257L333.473 171.704H335.439L335.402 174.257L337.7 172.876L338.719 174.59L336.446 175.848V175.836Z" fill="#263238"/>
<path d="M345.907 175.836L348.18 177.069L347.16 178.784L344.863 177.427L344.9 179.968H342.934L342.958 177.415L340.661 178.796L339.653 177.082L341.926 175.848L339.653 174.59L340.661 172.876L342.958 174.257L342.934 171.704H344.9L344.863 174.257L347.16 172.876L348.18 174.59L345.907 175.848V175.836Z" fill="#263238"/>
<path d="M355.38 175.836L357.653 177.069L356.633 178.784L354.336 177.427L354.373 179.968H352.407L352.431 177.415L350.134 178.796L349.126 177.082L351.399 175.848L349.126 174.59L350.134 172.876L352.431 174.257L352.407 171.704H354.373L354.336 174.257L356.633 172.876L357.653 174.59L355.38 175.848V175.836Z" fill="#263238"/>
<path d="M364.853 175.836L367.126 177.069L366.106 178.784L363.809 177.427L363.846 179.968H361.88L361.904 177.415L359.607 178.796L358.599 177.082L360.872 175.848L358.599 174.59L359.607 172.876L361.904 174.257L361.88 171.704H363.846L363.809 174.257L366.106 172.876L367.126 174.59L364.853 175.848V175.836Z" fill="#263238"/>
<path d="M374.314 175.836L376.587 177.069L375.567 178.784L373.27 177.427L373.306 179.968H371.341L371.365 177.415L369.068 178.796L368.06 177.082L370.333 175.848L368.06 174.59L369.068 172.876L371.365 174.257L371.341 171.704H373.306L373.27 174.257L375.567 172.876L376.587 174.59L374.314 175.848V175.836Z" fill="#263238"/>
<path d="M477.854 243.847H294.758C290.428 243.847 286.919 247.37 286.919 251.716V346.862C286.919 351.208 290.428 354.731 294.758 354.731H477.854C482.183 354.731 485.693 351.208 485.693 346.862V251.716C485.693 247.37 482.183 243.847 477.854 243.847Z" fill="white"/>
<path d="M477.866 354.719C477.866 354.719 478.395 354.719 479.414 354.534C480.397 354.312 481.921 353.806 483.358 352.375C484.059 351.66 484.71 350.723 485.128 349.563C485.361 348.984 485.472 348.342 485.57 347.676C485.619 347.01 485.607 346.295 485.607 345.555C485.607 342.594 485.595 339.178 485.582 335.342C485.558 319.961 485.521 297.735 485.484 270.267C485.484 266.838 485.484 263.31 485.484 259.721C485.484 257.92 485.484 256.107 485.484 254.269C485.435 252.432 485.681 250.544 484.931 248.867C484.255 247.19 482.953 245.746 481.294 244.908C480.471 244.488 479.574 244.229 478.64 244.131C477.731 244.057 476.736 244.106 475.765 244.094C471.883 244.094 467.926 244.094 463.909 244.094C447.813 244.094 430.624 244.118 412.526 244.118C376.341 244.118 336.557 244.131 294.795 244.143C293.541 244.143 292.3 244.464 291.195 245.056C290.113 245.672 289.155 246.523 288.479 247.584C287.816 248.633 287.373 249.841 287.3 251.087C287.238 252.333 287.287 253.665 287.275 254.948C287.275 260.128 287.275 265.271 287.275 270.378C287.275 280.59 287.275 290.643 287.275 300.535C287.275 310.415 287.275 320.134 287.275 329.644C287.275 334.392 287.275 339.104 287.275 343.754C287.275 344.913 287.251 346.097 287.287 347.22C287.337 348.33 287.644 349.428 288.147 350.402C289.18 352.363 291.096 353.794 293.234 354.25C294.291 354.497 295.409 354.398 296.539 354.423C297.657 354.423 298.788 354.423 299.906 354.423C302.142 354.423 304.354 354.423 306.565 354.423C310.976 354.423 315.326 354.423 319.614 354.423C328.19 354.423 336.508 354.423 344.556 354.435C360.651 354.448 375.641 354.46 389.328 354.472C416.691 354.509 438.831 354.546 454.153 354.571C461.795 354.596 467.742 354.62 471.772 354.633C473.775 354.645 475.311 354.657 476.355 354.67C477.387 354.67 477.915 354.707 477.915 354.707C477.915 354.707 477.387 354.731 476.355 354.744C475.311 354.744 473.775 354.756 471.772 354.781C467.73 354.793 461.795 354.818 454.153 354.842C438.831 354.867 416.691 354.904 389.328 354.941C375.641 354.941 360.651 354.966 344.556 354.978C336.508 354.978 328.19 354.978 319.614 354.99C315.326 354.99 310.976 354.99 306.565 354.99C304.366 354.99 302.142 354.99 299.906 354.99C298.788 354.99 297.67 354.99 296.539 354.99C295.433 354.966 294.278 355.077 293.111 354.818C290.814 354.337 288.749 352.782 287.631 350.673C287.078 349.625 286.747 348.441 286.698 347.244C286.661 346.06 286.698 344.926 286.673 343.754C286.673 339.104 286.673 334.392 286.673 329.644C286.673 320.134 286.673 310.427 286.673 300.535C286.673 290.655 286.673 280.59 286.673 270.378C286.673 265.271 286.673 260.128 286.673 254.948C286.685 253.64 286.636 252.382 286.71 251.038C286.796 249.681 287.275 248.374 288 247.239C288.725 246.092 289.769 245.167 290.949 244.501C292.141 243.859 293.492 243.514 294.856 243.514C336.618 243.514 376.403 243.526 412.587 243.539C430.685 243.539 447.874 243.563 463.97 243.563C467.988 243.563 471.944 243.563 475.827 243.563C476.81 243.576 477.743 243.526 478.751 243.6C479.734 243.699 480.704 243.983 481.577 244.439C483.334 245.327 484.722 246.869 485.435 248.657C485.803 249.558 485.988 250.507 486.012 251.469C486.012 252.395 486.012 253.32 486.012 254.245C486.012 256.082 486.012 257.896 486.012 259.696C486.012 263.286 486.012 266.813 486.012 270.242C485.975 297.71 485.939 319.937 485.914 335.317C485.914 339.153 485.889 342.57 485.889 345.53C485.889 346.27 485.889 346.985 485.84 347.676C485.742 348.355 485.619 349.008 485.373 349.6C484.931 350.784 484.268 351.734 483.543 352.449C482.068 353.88 480.52 354.386 479.525 354.583C479.009 354.67 478.628 354.707 478.358 354.707C478.1 354.707 477.965 354.707 477.965 354.707L477.866 354.719Z" fill="#263238"/>
<path d="M327.993 296.317H309.944C307.264 296.317 305.091 298.498 305.091 301.189V329.397C305.091 332.088 307.264 334.269 309.944 334.269H327.993C330.674 334.269 332.846 332.088 332.846 329.397V301.189C332.846 298.498 330.674 296.317 327.993 296.317Z" fill="#EBEBEB"/>
<path d="M362.654 296.317H344.605C341.924 296.317 339.752 298.498 339.752 301.189V329.397C339.752 332.088 341.924 334.269 344.605 334.269H362.654C365.334 334.269 367.507 332.088 367.507 329.397V301.189C367.507 298.498 365.334 296.317 362.654 296.317Z" fill="#EBEBEB"/>
<path d="M397.315 296.317H379.266C376.585 296.317 374.412 298.498 374.412 301.189V329.397C374.412 332.088 376.585 334.269 379.266 334.269H397.315C399.995 334.269 402.168 332.088 402.168 329.397V301.189C402.168 298.498 399.995 296.317 397.315 296.317Z" fill="#EBEBEB"/>
<path d="M431.975 296.317H413.926C411.246 296.317 409.073 298.498 409.073 301.189V329.397C409.073 332.088 411.246 334.269 413.926 334.269H431.975C434.656 334.269 436.829 332.088 436.829 329.397V301.189C436.829 298.498 434.656 296.317 431.975 296.317Z" fill="#EBEBEB"/>
<path d="M466.624 296.317H448.575C445.894 296.317 443.722 298.498 443.722 301.189V329.397C443.722 332.088 445.894 334.269 448.575 334.269H466.624C469.304 334.269 471.477 332.088 471.477 329.397V301.189C471.477 298.498 469.304 296.317 466.624 296.317Z" fill="#EBEBEB"/>
<path d="M325.02 318.222C325.02 320.936 322.931 322.687 320.105 322.687C316.223 322.687 314.183 319.887 314.183 315.249C314.183 310.229 316.837 307.652 320.744 307.652C322.01 307.652 323.189 307.861 324.098 308.416L323.656 309.28C322.894 308.799 321.862 308.601 320.744 308.601C317.427 308.601 315.264 310.784 315.264 315.077C315.264 315.521 315.289 316.175 315.387 316.853C316.001 314.904 317.857 313.806 320.093 313.806C323.042 313.806 325.032 315.545 325.032 318.21L325.02 318.222ZM323.939 318.247C323.939 316.125 322.415 314.756 319.933 314.756C317.451 314.756 315.842 316.298 315.842 318.296C315.842 320.035 317.291 321.762 320.056 321.762C322.354 321.762 323.939 320.38 323.939 318.247Z" fill="#000091" stroke="#000091"/>
<path d="M359.3 318.481H356.203V322.588H355.147V318.481H346.73V317.692L354.741 307.763H355.945L348.082 317.519H355.171V313.893H356.203V317.519H359.3V318.469V318.481Z" fill="#000091" stroke="#000091"/>
<path d="M395.054 324.685C395.054 324.858 392.179 325.006 388.628 325.006C385.077 325.006 382.202 324.858 382.202 324.685C382.202 324.512 385.077 324.365 388.628 324.365C392.179 324.365 395.054 324.512 395.054 324.685Z" fill="#000091" stroke="#000091"/>
<path d="M299.537 257.933C301.2 257.933 302.547 256.58 302.547 254.911C302.547 253.242 301.2 251.889 299.537 251.889C297.875 251.889 296.527 253.242 296.527 254.911C296.527 256.58 297.875 257.933 299.537 257.933Z" fill="#263238"/>
<path d="M311.222 254.911C311.222 256.576 309.87 257.933 308.212 257.933C306.553 257.933 305.201 256.576 305.201 254.911C305.201 253.246 306.553 251.889 308.212 251.889C309.87 251.889 311.222 253.246 311.222 254.911Z" fill="#263238"/>
<path d="M316.726 257.933C318.389 257.933 319.737 256.58 319.737 254.911C319.737 253.242 318.389 251.889 316.726 251.889C315.064 251.889 313.716 253.242 313.716 254.911C313.716 256.58 315.064 257.933 316.726 257.933Z" fill="#263238"/>
<path d="M486 263.421C486 263.594 441.498 263.742 386.613 263.742C331.728 263.742 287.214 263.594 287.214 263.421C287.214 263.249 331.704 263.101 386.613 263.101C441.522 263.101 486 263.249 486 263.421Z" fill="#263238"/>
<path d="M337.816 283.749V275.349H342.496V276.513H339.184V278.889H342.016V280.053H339.184V282.585H342.496V283.749H337.816ZM344.348 283.749V277.701H345.584V278.289C346.04 277.809 346.64 277.461 347.504 277.461C348.836 277.461 349.856 278.361 349.856 280.113V283.749H348.608V280.161C348.608 279.201 348.08 278.625 347.216 278.625C346.388 278.625 345.896 279.141 345.584 279.669V283.749H344.348ZM352.138 281.649V278.817H350.998V277.701H352.138V276.189H353.386V277.701H355.39V278.817H353.386V281.649C353.386 282.465 353.818 282.729 354.49 282.729C354.898 282.729 355.174 282.681 355.39 282.597V283.689C355.102 283.809 354.766 283.869 354.298 283.869C352.882 283.869 352.138 283.125 352.138 281.649ZM356.864 283.749V277.701H358.1V278.385C358.52 277.917 359.048 277.581 359.792 277.581C359.984 277.581 360.164 277.617 360.32 277.665V278.877C360.128 278.829 359.936 278.793 359.684 278.793C358.916 278.793 358.412 279.201 358.1 279.717V283.749H356.864ZM366.824 282.765C366.26 283.521 365.336 283.989 364.208 283.989C362.12 283.989 360.884 282.489 360.884 280.725C360.884 278.913 362.036 277.461 363.956 277.461C365.624 277.461 366.704 278.601 366.704 280.137C366.704 280.413 366.668 280.689 366.62 280.869H362.156C362.24 282.189 363.044 282.873 364.208 282.873C364.94 282.873 365.552 282.549 365.924 282.045L366.824 282.765ZM363.932 278.493C363.032 278.493 362.408 279.009 362.216 279.945H365.468C365.444 279.189 364.904 278.493 363.932 278.493ZM368.325 283.749V277.701H369.561V278.385C369.981 277.917 370.509 277.581 371.253 277.581C371.445 277.581 371.625 277.617 371.781 277.665V278.877C371.589 278.829 371.397 278.793 371.145 278.793C370.377 278.793 369.873 279.201 369.561 279.717V283.749H368.325ZM376.376 283.749V274.749H377.612V283.749H376.376ZM385.094 282.765C384.53 283.521 383.606 283.989 382.478 283.989C380.39 283.989 379.154 282.489 379.154 280.725C379.154 278.913 380.306 277.461 382.226 277.461C383.894 277.461 384.974 278.601 384.974 280.137C384.974 280.413 384.938 280.689 384.89 280.869H380.426C380.51 282.189 381.314 282.873 382.478 282.873C383.21 282.873 383.822 282.549 384.194 282.045L385.094 282.765ZM382.202 278.493C381.302 278.493 380.678 279.009 380.486 279.945H383.738C383.714 279.189 383.174 278.493 382.202 278.493ZM392.661 282.825C393.345 282.825 393.897 282.489 394.233 282.021L395.205 282.765C394.653 283.509 393.765 283.989 392.649 283.989C390.621 283.989 389.349 282.489 389.349 280.725C389.349 278.961 390.621 277.461 392.649 277.461C393.753 277.461 394.653 277.941 395.205 278.685L394.233 279.429C393.897 278.961 393.345 278.625 392.649 278.625C391.485 278.625 390.645 279.537 390.645 280.725C390.645 281.925 391.485 282.825 392.661 282.825ZM399.071 277.461C401.039 277.461 402.359 278.937 402.359 280.725C402.359 282.513 401.039 283.989 399.071 283.989C397.115 283.989 395.783 282.513 395.783 280.725C395.783 278.937 397.115 277.461 399.071 277.461ZM399.083 282.825C400.223 282.825 401.063 281.877 401.063 280.725C401.063 279.549 400.223 278.625 399.083 278.625C397.919 278.625 397.079 279.561 397.079 280.725C397.079 281.889 397.919 282.825 399.083 282.825ZM403.482 280.725C403.482 278.961 404.67 277.461 406.578 277.461C407.442 277.461 408.09 277.773 408.594 278.313V274.749H409.854V283.749H408.594V283.137C408.09 283.677 407.442 283.989 406.578 283.989C404.67 283.989 403.482 282.489 403.482 280.725ZM404.79 280.725C404.79 281.913 405.57 282.825 406.734 282.825C407.514 282.825 408.186 282.453 408.594 281.817V279.633C408.15 278.973 407.49 278.625 406.734 278.625C405.57 278.625 404.79 279.537 404.79 280.725ZM417.308 282.765C416.744 283.521 415.82 283.989 414.692 283.989C412.604 283.989 411.368 282.489 411.368 280.725C411.368 278.913 412.52 277.461 414.44 277.461C416.108 277.461 417.188 278.601 417.188 280.137C417.188 280.413 417.152 280.689 417.104 280.869H412.64C412.724 282.189 413.528 282.873 414.692 282.873C415.424 282.873 416.036 282.549 416.408 282.045L417.308 282.765ZM414.416 278.493C413.516 278.493 412.892 279.009 412.7 279.945H415.952C415.928 279.189 415.388 278.493 414.416 278.493Z" fill="black"/>
<path d="M300.43 144.487C299.96 145.117 299.19 145.507 298.25 145.507C296.51 145.507 295.48 144.257 295.48 142.787C295.48 141.277 296.44 140.067 298.04 140.067C299.43 140.067 300.33 141.017 300.33 142.297C300.33 142.527 300.3 142.757 300.26 142.907H296.54C296.61 144.007 297.28 144.577 298.25 144.577C298.86 144.577 299.37 144.307 299.68 143.887L300.43 144.487ZM298.02 140.927C297.27 140.927 296.75 141.357 296.59 142.137H299.3C299.28 141.507 298.83 140.927 298.02 140.927ZM301.681 145.307V140.267H302.711V140.737C303.071 140.347 303.541 140.067 304.211 140.067C304.901 140.067 305.481 140.377 305.801 140.977C306.191 140.477 306.691 140.067 307.561 140.067C308.611 140.067 309.421 140.787 309.421 142.177V145.307H308.381V142.217C308.381 141.477 307.971 141.037 307.321 141.037C306.721 141.037 306.331 141.417 306.061 141.897C306.071 141.987 306.071 142.077 306.071 142.177V145.307H305.031V142.217C305.031 141.477 304.631 141.037 303.971 141.037C303.331 141.037 302.951 141.477 302.711 141.907V145.307H301.681ZM312.407 145.457C311.407 145.457 310.727 144.887 310.727 143.997C310.727 143.237 311.317 142.687 312.387 142.507L314.017 142.237V141.977C314.017 141.357 313.557 140.977 312.907 140.977C312.357 140.977 311.927 141.227 311.637 141.637L310.867 141.047C311.317 140.447 312.037 140.067 312.937 140.067C314.297 140.067 315.047 140.867 315.047 141.977V145.307H314.017V144.737C313.657 145.177 313.027 145.457 312.407 145.457ZM311.767 143.957C311.767 144.347 312.077 144.617 312.597 144.617C313.227 144.617 313.717 144.317 314.017 143.837V142.967L312.657 143.197C312.027 143.307 311.767 143.577 311.767 143.957ZM317.182 139.147C316.802 139.147 316.482 138.827 316.482 138.447C316.482 138.067 316.802 137.747 317.182 137.747C317.562 137.747 317.882 138.067 317.882 138.447C317.882 138.827 317.562 139.147 317.182 139.147ZM316.662 145.307V140.267H317.692V145.307H316.662ZM319.376 145.307V137.807H320.406V145.307H319.376ZM323.551 142.807C323.551 141.827 324.211 140.997 325.251 140.997C325.691 140.997 326.061 141.157 326.361 141.457V141.127H327.171V143.467C327.171 143.757 327.351 143.947 327.611 143.947C328.081 143.947 328.431 143.337 328.431 142.417C328.431 140.927 327.191 139.737 325.491 139.737C323.711 139.737 322.451 141.137 322.451 142.797C322.451 144.467 323.711 145.867 325.491 145.867C326.351 145.867 327.021 145.657 327.761 145.017L328.151 145.607C327.351 146.237 326.531 146.497 325.481 146.497C323.241 146.497 321.721 144.797 321.721 142.797C321.721 140.797 323.241 139.097 325.481 139.097C327.651 139.097 329.141 140.597 329.141 142.417C329.141 143.667 328.531 144.607 327.551 144.607C327.031 144.607 326.671 144.357 326.511 143.997C326.201 144.387 325.801 144.607 325.251 144.607C324.211 144.607 323.551 143.787 323.551 142.807ZM324.431 142.807C324.431 143.397 324.811 143.857 325.391 143.857C325.801 143.857 326.121 143.627 326.361 143.277V142.357C326.121 141.987 325.801 141.757 325.391 141.757C324.811 141.757 324.431 142.207 324.431 142.807ZM330.451 145.307V140.267H331.481V140.737C331.841 140.347 332.311 140.067 332.981 140.067C333.671 140.067 334.251 140.377 334.571 140.977C334.961 140.477 335.461 140.067 336.331 140.067C337.381 140.067 338.191 140.787 338.191 142.177V145.307H337.151V142.217C337.151 141.477 336.741 141.037 336.091 141.037C335.491 141.037 335.101 141.417 334.831 141.897C334.841 141.987 334.841 142.077 334.841 142.177V145.307H333.801V142.217C333.801 141.477 333.401 141.037 332.741 141.037C332.101 141.037 331.721 141.477 331.481 141.907V145.307H330.451ZM341.177 145.457C340.177 145.457 339.497 144.887 339.497 143.997C339.497 143.237 340.087 142.687 341.157 142.507L342.787 142.237V141.977C342.787 141.357 342.327 140.977 341.677 140.977C341.127 140.977 340.697 141.227 340.407 141.637L339.637 141.047C340.087 140.447 340.807 140.067 341.707 140.067C343.067 140.067 343.817 140.867 343.817 141.977V145.307H342.787V144.737C342.427 145.177 341.797 145.457 341.177 145.457ZM340.537 143.957C340.537 144.347 340.847 144.617 341.367 144.617C341.997 144.617 342.487 144.317 342.787 143.837V142.967L341.427 143.197C340.797 143.307 340.537 143.577 340.537 143.957ZM345.951 139.147C345.571 139.147 345.251 138.827 345.251 138.447C345.251 138.067 345.571 137.747 345.951 137.747C346.331 137.747 346.651 138.067 346.651 138.447C346.651 138.827 346.331 139.147 345.951 139.147ZM345.431 145.307V140.267H346.461V145.307H345.431ZM348.146 145.307V137.807H349.176V145.307H348.146ZM351.381 145.427C350.961 145.427 350.631 145.097 350.631 144.687C350.631 144.287 350.961 143.947 351.381 143.947C351.791 143.947 352.121 144.287 352.121 144.687C352.121 145.097 351.791 145.427 351.381 145.427ZM355.643 144.537C356.213 144.537 356.673 144.257 356.953 143.867L357.763 144.487C357.303 145.107 356.563 145.507 355.633 145.507C353.943 145.507 352.883 144.257 352.883 142.787C352.883 141.317 353.943 140.067 355.633 140.067C356.553 140.067 357.303 140.467 357.763 141.087L356.953 141.707C356.673 141.317 356.213 141.037 355.633 141.037C354.663 141.037 353.963 141.797 353.963 142.787C353.963 143.787 354.663 144.537 355.643 144.537ZM360.984 140.067C362.624 140.067 363.724 141.297 363.724 142.787C363.724 144.277 362.624 145.507 360.984 145.507C359.354 145.507 358.244 144.277 358.244 142.787C358.244 141.297 359.354 140.067 360.984 140.067ZM360.994 144.537C361.944 144.537 362.644 143.747 362.644 142.787C362.644 141.807 361.944 141.037 360.994 141.037C360.024 141.037 359.324 141.817 359.324 142.787C359.324 143.757 360.024 144.537 360.994 144.537ZM365.011 145.307V140.267H366.041V140.737C366.401 140.347 366.871 140.067 367.541 140.067C368.231 140.067 368.811 140.377 369.131 140.977C369.521 140.477 370.021 140.067 370.891 140.067C371.941 140.067 372.751 140.787 372.751 142.177V145.307H371.711V142.217C371.711 141.477 371.301 141.037 370.651 141.037C370.051 141.037 369.661 141.417 369.391 141.897C369.401 141.987 369.401 142.077 369.401 142.177V145.307H368.361V142.217C368.361 141.477 367.961 141.037 367.301 141.037C366.661 141.037 366.281 141.477 366.041 141.907V145.307H365.011Z" fill="black"/>
<path d="M262.726 107.715H167.013C164.261 107.715 162.037 109.947 162.037 112.71V156.484C162.037 159.247 164.261 161.479 167.013 161.479H207.166L215.693 172.457L222.795 161.479H262.714C265.466 161.479 267.69 159.247 267.69 156.484V112.71C267.69 109.947 265.466 107.715 262.714 107.715H262.726Z" fill="white"/>
<path d="M262.726 107.714C262.726 107.714 262.886 107.714 263.205 107.714C263.513 107.751 263.992 107.788 264.569 108.023C265.147 108.245 265.847 108.627 266.461 109.306C267.088 109.972 267.629 110.958 267.776 112.167C267.862 116.94 267.85 123.86 267.887 132.642C267.887 137.033 267.911 141.88 267.924 147.135C267.924 149.762 267.924 152.5 267.936 155.324C267.924 156.028 267.985 156.755 267.838 157.508C267.69 158.248 267.383 158.963 266.928 159.58C266.031 160.826 264.545 161.664 262.96 161.714C250.919 161.726 237.416 161.751 222.807 161.775L223.053 161.64C220.816 165.093 218.408 168.818 215.951 172.617L215.717 172.975L215.459 172.642C212.769 169.176 209.869 165.451 206.92 161.664L207.166 161.788C196.108 161.788 184.534 161.788 172.665 161.788H168.524C167.824 161.775 167.173 161.812 166.423 161.751C165.698 161.664 164.986 161.43 164.359 161.06C163.094 160.332 162.172 159.062 161.853 157.631C161.681 156.916 161.73 156.188 161.717 155.522V153.487C161.717 148.072 161.717 142.731 161.717 137.477C161.717 132.235 161.717 127.079 161.717 122.022C161.717 119.494 161.717 117.002 161.717 114.535V112.685C161.717 112.031 161.84 111.39 162.074 110.786C162.541 109.577 163.45 108.566 164.58 107.986C165.145 107.69 165.76 107.505 166.386 107.431C167.025 107.369 167.603 107.406 168.205 107.394C169.384 107.394 170.564 107.394 171.743 107.394C174.078 107.394 176.388 107.394 178.673 107.394C183.219 107.394 187.642 107.394 191.918 107.406C200.457 107.418 208.419 107.431 215.681 107.443C230.191 107.48 241.95 107.517 250.096 107.542C254.138 107.566 257.296 107.591 259.446 107.603C260.502 107.616 261.313 107.628 261.879 107.64C262.431 107.64 262.702 107.677 262.702 107.677C262.702 107.677 262.419 107.702 261.879 107.714C261.313 107.714 260.502 107.727 259.446 107.751C257.283 107.764 254.138 107.788 250.096 107.813C241.95 107.838 230.191 107.875 215.681 107.912C208.419 107.912 200.457 107.937 191.918 107.949C187.642 107.949 183.231 107.949 178.673 107.961C176.4 107.961 174.09 107.961 171.743 107.961C170.576 107.961 169.397 107.961 168.205 107.961C167.615 107.961 167.001 107.949 166.46 107.998C165.907 108.06 165.354 108.233 164.851 108.492C163.843 109.01 163.032 109.91 162.627 110.983C162.418 111.513 162.319 112.093 162.307 112.673V114.523C162.307 116.99 162.307 119.494 162.307 122.01C162.307 127.054 162.307 132.21 162.307 137.465C162.307 142.707 162.307 148.047 162.307 153.474V155.509C162.307 156.2 162.27 156.854 162.43 157.471C162.7 158.716 163.524 159.839 164.629 160.48C165.182 160.801 165.797 161.011 166.436 161.085C167.05 161.146 167.787 161.109 168.463 161.122C169.839 161.122 171.227 161.122 172.603 161.122C184.472 161.122 196.046 161.122 207.104 161.122H207.252L207.35 161.245C210.287 165.031 213.186 168.756 215.877 172.222L215.386 172.247C217.843 168.448 220.264 164.723 222.5 161.27L222.586 161.134H222.745C237.342 161.146 250.845 161.159 262.874 161.171C264.311 161.122 265.663 160.369 266.474 159.247C266.879 158.692 267.174 158.038 267.309 157.372C267.444 156.706 267.395 155.99 267.408 155.287C267.408 152.463 267.408 149.725 267.42 147.098C267.432 141.843 267.444 136.996 267.457 132.605C267.481 123.848 267.494 116.916 267.506 112.142C267.383 110.983 266.879 110.021 266.277 109.367C265.687 108.689 265.012 108.307 264.459 108.072C263.316 107.616 262.653 107.727 262.653 107.677L262.726 107.714Z" fill="#263238"/>
<path d="M253.388 126.487H176.363C173.954 126.487 172.001 128.447 172.001 130.866V147.196C172.001 149.614 173.954 151.575 176.363 151.575H253.388C255.797 151.575 257.75 149.614 257.75 147.196V130.866C257.75 128.447 255.797 126.487 253.388 126.487Z" fill="#EBEBEB"/>
<path d="M189.424 140.56C189.424 142.781 187.716 144.224 185.394 144.224C182.212 144.224 180.541 141.93 180.541 138.131C180.541 134.023 182.715 131.902 185.91 131.902C186.942 131.902 187.913 132.075 188.662 132.531L188.294 133.246C187.667 132.852 186.819 132.691 185.91 132.691C183.195 132.691 181.413 134.48 181.413 137.995C181.413 138.365 181.425 138.895 181.511 139.45C182.015 137.859 183.539 136.947 185.369 136.947C187.79 136.947 189.412 138.365 189.412 140.56H189.424ZM188.552 140.573C188.552 138.834 187.311 137.711 185.271 137.711C183.231 137.711 181.917 138.982 181.917 140.61C181.917 142.028 183.109 143.459 185.369 143.459C187.249 143.459 188.552 142.337 188.552 140.585V140.573Z" fill="#CE0500" stroke="#000091"/>
<path d="M205.495 140.77H202.952V144.137H202.091V140.77H195.199V140.129L201.772 131.988H202.755L196.304 139.993H202.116V137.021H202.964V139.993H205.507V140.77H205.495Z" fill="#CE0500" stroke="#000091"/>
<path d="M218.924 140.721C218.924 142.731 217.474 144.224 214.685 144.224C212.904 144.224 211.257 143.57 210.422 142.596L210.876 141.917C211.614 142.768 213.039 143.41 214.698 143.41C216.872 143.41 218.04 142.374 218.04 140.721C218.04 139.068 216.934 138.032 214.513 138.032H213.752V137.391L217.327 132.79H210.876V131.988H218.47V132.617L214.845 137.292C217.597 137.366 218.937 138.747 218.937 140.733L218.924 140.721Z" fill="#CE0500" stroke="#000091"/>
<path d="M233.545 131.988V132.617L228.348 144.137H227.377L232.526 132.79H225.731V135.121H224.871V132.001H233.545V131.988Z" fill="#CE0500" stroke="#000091"/>
<path d="M239.726 138.057C239.726 134.258 241.679 131.902 244.456 131.902C247.233 131.902 249.186 134.258 249.186 138.057C249.186 141.856 247.233 144.211 244.456 144.211C241.679 144.211 239.726 141.856 239.726 138.057ZM248.314 138.057C248.314 134.677 246.741 132.716 244.456 132.716C242.171 132.716 240.598 134.677 240.598 138.057C240.598 141.436 242.171 143.397 244.456 143.397C246.741 143.397 248.314 141.436 248.314 138.057Z" fill="#CE0500" stroke="#000091"/>
<path d="M188.85 116.147H189.826L191.642 120.787L193.45 116.147H194.434L192.242 121.747H191.034L188.85 116.147ZM196.726 117.555C198.038 117.555 198.918 118.539 198.918 119.731C198.918 120.923 198.038 121.907 196.726 121.907C195.422 121.907 194.534 120.923 194.534 119.731C194.534 118.539 195.422 117.555 196.726 117.555ZM196.734 121.131C197.494 121.131 198.054 120.499 198.054 119.731C198.054 118.947 197.494 118.331 196.734 118.331C195.958 118.331 195.398 118.955 195.398 119.731C195.398 120.507 195.958 121.131 196.734 121.131ZM200.133 120.347V118.459H199.373V117.715H200.133V116.707H200.965V117.715H202.301V118.459H200.965V120.347C200.965 120.891 201.253 121.067 201.701 121.067C201.973 121.067 202.157 121.035 202.301 120.979V121.707C202.109 121.787 201.885 121.827 201.573 121.827C200.629 121.827 200.133 121.331 200.133 120.347ZM203.284 121.747V117.715H204.108V118.171C204.388 117.859 204.74 117.635 205.236 117.635C205.364 117.635 205.484 117.659 205.588 117.691V118.499C205.46 118.467 205.332 118.443 205.164 118.443C204.652 118.443 204.316 118.715 204.108 119.059V121.747H203.284ZM209.924 121.091C209.548 121.595 208.932 121.907 208.18 121.907C206.788 121.907 205.964 120.907 205.964 119.731C205.964 118.523 206.732 117.555 208.012 117.555C209.124 117.555 209.844 118.315 209.844 119.339C209.844 119.523 209.82 119.707 209.788 119.827H206.812C206.868 120.707 207.404 121.163 208.18 121.163C208.668 121.163 209.076 120.947 209.324 120.611L209.924 121.091ZM207.996 118.243C207.396 118.243 206.98 118.587 206.852 119.211H209.02C209.004 118.707 208.644 118.243 207.996 118.243ZM214.969 121.131C215.425 121.131 215.793 120.907 216.017 120.595L216.665 121.091C216.297 121.587 215.705 121.907 214.961 121.907C213.609 121.907 212.761 120.907 212.761 119.731C212.761 118.555 213.609 117.555 214.961 117.555C215.697 117.555 216.297 117.875 216.665 118.371L216.017 118.867C215.793 118.555 215.425 118.331 214.961 118.331C214.185 118.331 213.625 118.939 213.625 119.731C213.625 120.531 214.185 121.131 214.969 121.131ZM219.242 117.555C220.554 117.555 221.434 118.539 221.434 119.731C221.434 120.923 220.554 121.907 219.242 121.907C217.938 121.907 217.05 120.923 217.05 119.731C217.05 118.539 217.938 117.555 219.242 117.555ZM219.25 121.131C220.01 121.131 220.57 120.499 220.57 119.731C220.57 118.947 220.01 118.331 219.25 118.331C218.474 118.331 217.914 118.955 217.914 119.731C217.914 120.507 218.474 121.131 219.25 121.131ZM222.183 119.731C222.183 118.555 222.975 117.555 224.247 117.555C224.823 117.555 225.255 117.763 225.591 118.123V115.747H226.431V121.747H225.591V121.339C225.255 121.699 224.823 121.907 224.247 121.907C222.975 121.907 222.183 120.907 222.183 119.731ZM223.055 119.731C223.055 120.523 223.575 121.131 224.351 121.131C224.871 121.131 225.319 120.883 225.591 120.459V119.003C225.295 118.563 224.855 118.331 224.351 118.331C223.575 118.331 223.055 118.939 223.055 119.731ZM231.4 121.091C231.024 121.595 230.408 121.907 229.656 121.907C228.264 121.907 227.44 120.907 227.44 119.731C227.44 118.523 228.208 117.555 229.488 117.555C230.6 117.555 231.32 118.315 231.32 119.339C231.32 119.523 231.296 119.707 231.264 119.827H228.288C228.344 120.707 228.88 121.163 229.656 121.163C230.144 121.163 230.552 120.947 230.8 120.611L231.4 121.091ZM229.472 118.243C228.872 118.243 228.456 118.587 228.328 119.211H230.496C230.48 118.707 230.12 118.243 229.472 118.243Z" fill="black"/>
<path d="M190.198 255.133L232.796 278.802L251.484 244.167L268.501 239.887C268.501 239.887 257.369 301.09 252.848 306.726C248.326 312.351 237.649 319.64 226.468 315.78C216.295 312.252 176.142 285.302 176.142 285.302L190.198 255.145V255.133Z" fill="white" stroke="#000090" stroke-miterlimit="10"/>
<path d="M256.608 179.808C255.686 179.499 254.678 179.684 253.941 180.313L241.384 190.958C240.291 191.908 239.664 193.289 239.64 194.732L238.866 256.983L241.839 256.822L256.755 246.671L257.382 180.067L256.608 179.808Z" fill="white" stroke="#000090" stroke-miterlimit="10"/>
<path d="M250.489 191.722C250.943 191.796 251.398 191.352 251.484 190.748C251.582 190.144 251.287 189.589 250.833 189.515C250.378 189.441 249.924 189.885 249.838 190.489C249.739 191.106 250.034 191.648 250.489 191.722Z" fill="white" stroke="#000090" stroke-miterlimit="10"/>
<path d="M257.382 180.067C257.382 180.067 256.595 180.905 255.059 182.287C253.376 183.755 251.165 185.703 248.486 188.059C247.073 189.28 245.549 190.6 243.915 192.006C243.104 192.635 242.613 193.573 242.576 194.621C242.576 195.78 242.552 196.964 242.552 198.186C242.502 203.095 242.441 208.472 242.38 214.121C242.232 225.432 242.035 235.657 241.851 243.057C241.741 246.634 241.642 249.594 241.581 251.827C241.495 253.899 241.409 255.046 241.347 255.046C241.286 255.046 241.237 253.899 241.2 251.827C241.2 249.594 241.175 246.634 241.163 243.057C241.163 235.644 241.261 225.419 241.409 214.109C241.495 208.472 241.581 203.095 241.667 198.186C241.691 196.964 241.716 195.768 241.741 194.596C241.777 193.301 242.478 192.08 243.399 191.402C245.058 190.02 246.618 188.738 248.056 187.541C250.82 185.284 253.106 183.422 254.838 182.003C256.46 180.708 257.369 180.03 257.406 180.079L257.382 180.067Z" fill="white" stroke="#000090" stroke-miterlimit="10"/>
<path d="M252.061 205.537C252.061 205.537 250.698 206.092 252.147 209.891C253.597 213.69 257.529 224.716 257.529 224.716L248.941 225.37L241.569 231.525C241.569 231.525 240.844 234.263 242.687 234.337C244.53 234.399 250.182 232.08 250.182 232.08L257.345 235.102L243.301 236.73C243.301 236.73 240.303 239.949 242.748 241.479C245.181 243.008 256.78 245.278 256.78 245.278L251.128 248.287L242.257 248.447C242.257 248.447 240.352 249.792 242.146 251.001C243.94 252.222 254.433 254.059 254.433 254.059L264.999 252.863C264.999 252.863 269.189 249.718 268.796 248.139C268.403 246.573 267.334 244.649 267.334 244.649C267.334 244.649 269.275 242.527 268.992 241.109C268.71 239.69 267.297 238.062 267.297 238.062C267.297 238.062 271.376 236.372 270.541 234.029C269.705 231.685 266.756 227.874 265.392 226.53C264.029 225.185 256.681 209.249 256.251 208.892C255.821 208.546 253.757 203.07 252.074 205.5L252.061 205.537Z" fill="white" stroke="#000090" stroke-miterlimit="10"/>
<path d="M269.078 248.003C269.164 248.077 268.599 248.928 267.383 250.002C266.179 251.075 264.262 252.333 261.903 253.147C259.544 253.961 257.271 254.146 255.661 254.047C254.04 253.948 253.081 253.628 253.106 253.517C253.13 253.208 257.087 253.813 261.596 252.222C266.117 250.705 268.882 247.781 269.091 248.016L269.078 248.003Z" fill="white" stroke="#000090" stroke-miterlimit="10"/>
<path d="M265.331 246.314C265.331 246.585 263.414 246.733 261.092 246.449C258.77 246.166 256.952 245.549 257.013 245.29C257.074 245.018 258.942 245.191 261.215 245.475C263.488 245.759 265.343 246.042 265.331 246.314Z" fill="white" stroke="#000090" stroke-miterlimit="10"/>
<path d="M265.171 236.619C265.171 236.878 263.279 237.051 261.006 236.619C258.733 236.2 257.025 235.373 257.124 235.126C257.21 234.867 258.991 235.25 261.19 235.657C263.377 236.064 265.184 236.335 265.171 236.619Z" fill="white" stroke="#000090" stroke-miterlimit="10"/>
<path d="M266.081 228.133C265.921 228.367 264.152 227.356 261.817 226.517C259.495 225.654 257.492 225.271 257.529 224.988C257.529 224.729 259.704 224.679 262.161 225.592C264.631 226.493 266.24 227.923 266.081 228.133Z" fill="white" stroke="#000090" stroke-miterlimit="10"/>
<path d="M197.533 251.913C197.533 251.913 194.412 282.465 175.294 295.786L139.466 282.49C141.346 297.279 143.177 325.006 140.56 370.211H20.7645V331.407C15.4567 331.543 10.1365 331.395 4.84095 330.963C-3.14539 294.405 1.22867 260.769 12.4833 244.55C24.1925 227.664 65.2792 219.795 65.2792 219.795L95.7133 219.401C95.7133 219.401 117.215 219.191 135.51 222.533C150.709 225.321 197.533 251.913 197.533 251.913Z" fill="#FCC63A"/>
<path d="M138.95 354.299C138.95 354.299 150.782 353.263 151.495 356.433C152.208 359.603 136.775 360.972 136.775 360.972C136.775 360.972 144.971 361.589 145.401 364.043C145.831 366.498 118.198 367.485 118.198 367.485C118.198 367.485 42.3399 374.293 23.5167 358.086C18.0491 353.387 11.4143 345.937 8.29352 331.444C21.17 331.839 35.2137 331.444 48.0901 326.745L48.8764 331.049C63.3133 333.011 94.1406 338.499 111.76 338.783C111.76 338.783 130.583 326.313 132.438 328.891C134.294 331.469 126.725 339.77 126.467 340.066C127.008 339.955 150.266 335.255 151.003 338.549C151.741 341.842 137.955 346.196 137.414 346.369C137.943 346.27 152.171 343.717 153.018 347.54C153.903 351.389 138.938 354.287 138.938 354.287L138.95 354.299Z" fill="white"/>
<path d="M20.7645 371C20.5556 371 20.359 370.913 20.2116 370.765C20.0642 370.617 19.9781 370.42 19.9781 370.21V355.545C19.9781 355.335 20.0642 355.138 20.2116 354.99C20.359 354.842 20.5556 354.756 20.7645 354.756C20.9734 354.756 21.17 354.842 21.3174 354.99C21.4648 355.138 21.5508 355.335 21.5508 355.545V370.21C21.5508 370.42 21.4648 370.617 21.3174 370.765C21.17 370.913 20.9734 371 20.7645 371ZM140.56 371C140.449 371 140.351 370.975 140.253 370.938C140.154 370.901 140.068 370.839 139.995 370.753C139.921 370.679 139.859 370.58 139.823 370.482C139.786 370.383 139.773 370.272 139.773 370.173C141.985 331.839 140.916 306.356 139.638 291.74C138.25 275.903 136.309 269.021 136.296 268.971C136.235 268.774 136.259 268.552 136.358 268.379C136.456 268.194 136.628 268.059 136.825 267.997C137.021 267.935 137.242 267.96 137.414 268.059C137.599 268.157 137.734 268.33 137.795 268.527C137.869 268.811 139.786 275.546 141.186 291.494C142.476 306.171 143.558 331.752 141.334 370.235C141.334 370.432 141.248 370.63 141.1 370.765C140.953 370.901 140.756 370.987 140.56 370.987V371Z" fill="#000090"/>
<path d="M4.76723 331.752C4.59522 331.74 4.44778 331.666 4.31262 331.555C4.18976 331.444 4.10375 331.296 4.06689 331.136C-3.46485 296.637 -0.34403 261.657 11.8321 244.106C15.899 238.235 26.1584 229.687 51.8621 222.299C51.9604 222.274 52.0587 222.262 52.1693 222.274C52.2676 222.274 52.3659 222.324 52.4642 222.373C52.5502 222.422 52.6362 222.496 52.6976 222.57C52.759 222.657 52.8082 222.743 52.8328 222.842C52.8573 222.94 52.8696 223.039 52.8573 223.15C52.8573 223.249 52.8082 223.347 52.759 223.446C52.7099 223.532 52.6362 223.619 52.5625 223.68C52.4764 223.742 52.3904 223.791 52.2921 223.816C27.0061 231.093 17.0416 239.357 13.1099 245.006C3.20682 259.289 -2.94881 291.111 5.46757 330.235C20.7154 331.407 31.6628 330.124 38.1747 328.829C46.8737 327.102 50.0068 324.944 50.228 324.29C47.1072 304.617 46.4805 282.206 46.9106 268.971C46.9106 268.873 46.9352 268.762 46.9843 268.675C47.0212 268.577 47.0826 268.503 47.1563 268.429C47.23 268.355 47.316 268.305 47.4143 268.268C47.5126 268.231 47.6109 268.219 47.7092 268.219C47.8075 268.219 47.9181 268.244 48.0041 268.293C48.1024 268.33 48.1761 268.392 48.2498 268.466C48.3235 268.54 48.3727 268.626 48.4096 268.725C48.4464 268.823 48.4587 268.922 48.4587 269.021C48.0287 282.206 48.643 304.556 51.7761 324.142C52.4027 328.126 32.7932 333.985 4.74266 331.752H4.76723ZM83.3406 369.668C67.7365 369.668 34.8696 368.878 23.0007 358.666C19.1304 355.335 13.5399 349.736 9.84163 339.646C9.80478 339.548 9.79249 339.449 9.79249 339.35C9.79249 339.252 9.81706 339.141 9.86621 339.054C9.91535 338.956 9.9645 338.882 10.0505 338.808C10.1242 338.734 10.2102 338.684 10.3085 338.647C10.4068 338.61 10.5051 338.598 10.6157 338.598C10.714 338.598 10.8246 338.623 10.9106 338.672C11.0089 338.709 11.0826 338.771 11.1563 338.857C11.23 338.931 11.2792 339.017 11.316 339.116C14.9038 348.86 20.2853 354.262 24.0328 357.482C39.6369 370.938 97.9372 368.521 118.137 366.695H118.173C129.907 366.276 142.685 365.141 144.553 363.957C143.939 362.933 140.154 361.996 136.714 361.737C136.505 361.737 136.309 361.651 136.161 361.503C136.014 361.355 135.928 361.157 135.928 360.948C135.928 360.738 136.014 360.54 136.161 360.392C136.309 360.244 136.505 360.158 136.714 360.158C141.481 359.726 149.48 358.431 150.672 356.779C150.758 356.655 150.745 356.594 150.745 356.569C150.414 355.089 144.418 354.608 139.036 355.064C138.827 355.089 138.618 355.039 138.459 354.916C138.287 354.793 138.188 354.595 138.152 354.398C138.127 354.188 138.176 353.979 138.299 353.806C138.422 353.646 138.606 353.535 138.815 353.498C141.985 352.881 150.561 350.759 152.121 348.354C152.195 348.256 152.257 348.145 152.281 348.034C152.306 347.91 152.318 347.787 152.281 347.664C151.839 345.702 144.295 345.863 137.549 347.109C137.353 347.158 137.144 347.109 136.972 347.01C136.8 346.899 136.677 346.739 136.628 346.541C136.579 346.344 136.603 346.134 136.702 345.961C136.8 345.789 136.96 345.653 137.156 345.591C145.352 343.038 150.512 339.967 150.229 338.697C150.205 338.647 149.283 337.352 138.127 338.857C132.315 339.634 126.651 340.793 126.59 340.818C126.43 340.855 126.258 340.83 126.111 340.756C125.963 340.695 125.84 340.571 125.754 340.423C125.668 340.275 125.644 340.115 125.656 339.955C125.668 339.794 125.742 339.634 125.853 339.511C129.416 335.588 132.684 330.593 131.775 329.323C131.738 329.323 130.411 328.583 121.356 333.751C116.65 336.439 112.202 339.375 112.165 339.412C112.03 339.498 111.883 339.548 111.723 339.535C94.0792 339.252 63.0799 333.751 48.7413 331.802C48.643 331.789 48.5447 331.752 48.4464 331.703C48.3481 331.654 48.2744 331.58 48.213 331.493C48.1515 331.407 48.1024 331.321 48.0778 331.222C48.0532 331.123 48.041 331.012 48.0532 330.914C48.0655 330.815 48.1024 330.716 48.1515 330.618C48.2007 330.531 48.2744 330.445 48.3481 330.383C48.4341 330.322 48.5201 330.272 48.6184 330.248C48.7167 330.223 48.8273 330.211 48.9256 330.223C63.3256 332.184 93.9194 337.611 111.489 337.944C112.448 337.315 116.65 334.589 120.975 332.135C126.418 329.051 131.64 326.461 133.016 328.373C134.687 330.692 130.988 335.81 128.482 338.808C130.78 338.376 134.527 337.722 138.287 337.241C149.554 335.761 151.397 336.958 151.704 338.339C152.33 341.077 146.74 343.544 144.037 344.691C148.374 344.407 153.141 344.691 153.731 347.306C154.431 350.377 148.657 352.4 145.634 353.362C148.755 353.572 151.765 354.299 152.195 356.199C152.257 356.458 152.257 356.717 152.195 356.976C152.134 357.235 152.023 357.469 151.863 357.679C150.659 359.344 146.04 360.417 142.169 361.022C144.123 361.577 145.868 362.465 146.113 363.846C146.138 364.006 146.126 364.179 146.089 364.339C146.04 364.5 145.966 364.648 145.855 364.783C145.462 365.277 144.516 366.436 131.087 367.472C124.784 367.953 118.603 368.188 118.21 368.212C117.522 368.274 101.82 369.631 83.2792 369.631L83.3406 369.668ZM175.294 296.575C175.085 296.575 177.1 297.303 147.158 286.19C146.973 286.116 146.814 285.968 146.728 285.783C146.642 285.598 146.642 285.388 146.703 285.191C146.777 284.994 146.912 284.846 147.096 284.759C147.281 284.673 147.489 284.661 147.686 284.735L175.159 294.923C180.491 291.111 187.765 283.489 192.827 268.614C194.621 263.335 195.911 257.883 196.673 252.357C191.808 249.619 149.455 225.9 135.326 223.323C125.226 221.473 114.119 220.72 106.575 220.424C106.366 220.424 106.169 220.325 106.034 220.177C105.899 220.029 105.825 219.82 105.825 219.61C105.825 219.4 105.924 219.203 106.071 219.067C106.218 218.932 106.427 218.858 106.636 218.858C114.217 219.166 125.41 219.918 135.596 221.781C150.77 224.556 195.973 250.162 197.889 251.247C198.025 251.321 198.123 251.432 198.197 251.568C198.27 251.704 198.295 251.852 198.283 252.012C197.533 257.834 196.194 263.581 194.289 269.132C191.377 277.716 185.775 289.471 175.724 296.452C175.589 296.551 175.429 296.6 175.257 296.6L175.294 296.575Z" fill="#000090"/>
<path d="M65.6846 176.909L65.4389 219.82C65.4389 219.82 79.5072 238.074 91.4621 235.558C98.3795 234.103 95.6273 219.573 95.6273 219.573L93.6983 199.715L65.6724 176.909H65.6846Z" fill="white"/>
<path d="M73.4621 229.231C70.3044 226.53 67.4171 223.545 64.8246 220.301C64.714 220.165 64.6649 219.993 64.6649 219.82L64.7386 207.313C64.7386 207.103 64.8246 206.906 64.972 206.758C65.1195 206.61 65.3161 206.524 65.5249 206.524C65.7338 206.524 65.9304 206.61 66.0778 206.758C66.2253 206.906 66.3113 207.103 66.3113 207.313L66.2376 219.549C67.8348 221.547 80.6498 237.026 91.3147 234.794C93.7843 234.276 95.1481 231.661 95.3693 227.011C95.4553 224.544 95.2833 222.077 94.8655 219.647L92.9365 199.789C92.9365 199.69 92.9365 199.579 92.9611 199.481C92.9857 199.382 93.0348 199.296 93.1085 199.209C93.17 199.135 93.256 199.061 93.342 199.012C93.428 198.963 93.5263 198.938 93.6369 198.926C93.7352 198.926 93.8457 198.926 93.944 198.95C94.0423 198.975 94.1283 199.024 94.2143 199.098C94.2881 199.16 94.3618 199.246 94.4109 199.333C94.4601 199.419 94.4847 199.518 94.4969 199.629L96.4137 219.45C96.598 220.461 99.1044 234.732 91.6341 236.323C85.1836 237.692 78.4751 233.486 73.4621 229.243V229.231Z" fill="#000090"/>
<path d="M80.0723 201.762C89.0416 205.759 99.129 207.202 107.607 205.339C126.307 201.22 121.945 176.083 120.545 160.172C118.247 134.122 99.215 128.411 80.9447 133.406C62.6621 138.402 52.1693 158.383 57.5017 178.068C58.9761 183.496 62.0478 188.331 66.127 192.388" fill="white"/>
<path d="M79.7529 202.478C79.5686 202.392 79.4335 202.231 79.3597 202.046C79.286 201.861 79.2983 201.652 79.3843 201.467C79.4703 201.282 79.6178 201.134 79.8021 201.06C79.9864 200.985 80.1952 200.985 80.3918 201.06C89.4348 205.093 99.301 206.376 107.447 204.587C123.567 201.035 121.835 181.127 120.201 164.686C120.053 163.157 119.906 161.664 119.771 160.258C118.825 149.515 115.003 141.732 108.393 137.119C101.513 132.309 91.8307 131.26 81.1536 134.184C62.8464 139.191 53.1768 159.111 58.2512 177.859C59.6273 182.953 62.4655 187.628 66.6676 191.821C66.7413 191.895 66.8027 191.982 66.8396 192.08C66.8765 192.179 66.901 192.278 66.901 192.376C66.901 192.475 66.8765 192.586 66.8396 192.672C66.8027 192.771 66.7413 192.857 66.6676 192.931C66.5939 193.005 66.5079 193.067 66.4096 193.104C66.3113 193.141 66.213 193.166 66.1147 193.166C66.0164 193.166 65.9058 193.153 65.8198 193.104C65.7215 193.067 65.6355 193.005 65.5618 192.931C61.1509 188.54 58.1898 183.607 56.7399 178.266C51.1986 157.841 62.3672 137.686 80.7358 132.666C91.8799 129.62 102.016 130.742 109.29 135.824C116.281 140.721 120.336 148.886 121.331 160.11C122.781 176.638 127.069 201.861 107.791 206.117C98.6621 208.127 88.3413 206.314 79.7529 202.503V202.478Z" fill="#000090"/>
<path d="M108.983 184.322C108.885 184.322 108.786 184.285 108.688 184.236C108.602 184.186 108.516 184.125 108.455 184.038C108.393 183.964 108.344 183.866 108.307 183.767C108.283 183.668 108.27 183.57 108.27 183.459C108.27 183.36 108.307 183.261 108.356 183.163C108.405 183.076 108.467 182.99 108.553 182.928C108.627 182.867 108.725 182.817 108.823 182.78C108.921 182.743 109.02 182.743 109.13 182.743C109.696 182.793 111.403 182.743 111.821 181.843C112.067 181.3 110.543 179.339 108.7 177.797C108.541 177.662 108.442 177.477 108.418 177.267C108.393 177.057 108.455 176.86 108.59 176.7C108.725 176.539 108.909 176.441 109.118 176.416C109.327 176.391 109.524 176.453 109.683 176.589C113.885 180.079 113.468 181.991 113.234 182.497C112.558 184.001 110.58 184.445 108.983 184.31V184.322ZM100.063 177.156C99.8785 177.156 99.6942 177.094 99.559 176.971C99.4239 176.848 99.3256 176.687 99.2887 176.502L98.8341 173.875C98.7973 173.665 98.8464 173.456 98.9693 173.295C99.0921 173.123 99.2642 173.012 99.473 172.975C99.6819 172.938 99.8908 172.975 100.051 173.11C100.223 173.234 100.333 173.406 100.37 173.616L100.825 176.231C100.849 176.342 100.837 176.453 100.812 176.564C100.788 176.675 100.726 176.774 100.665 176.86C100.603 176.946 100.505 177.02 100.407 177.07C100.309 177.119 100.198 177.144 100.075 177.144L100.063 177.156ZM115.544 174.43C115.36 174.43 115.175 174.368 115.04 174.245C114.893 174.122 114.807 173.961 114.77 173.776L114.315 171.149C114.278 170.952 114.328 170.742 114.451 170.569C114.573 170.397 114.745 170.286 114.954 170.249C115.163 170.212 115.372 170.249 115.532 170.372C115.704 170.495 115.814 170.668 115.851 170.878L116.306 173.505C116.33 173.616 116.318 173.727 116.294 173.838C116.269 173.949 116.207 174.048 116.146 174.134C116.072 174.22 115.986 174.294 115.888 174.344C115.79 174.393 115.679 174.418 115.569 174.418L115.544 174.43ZM96.1925 166.771C96.0573 166.771 95.9345 166.734 95.8239 166.672C95.7133 166.61 95.615 166.524 95.5413 166.413C95.4676 166.302 95.4307 166.179 95.4184 166.055C95.4184 165.932 95.4184 165.796 95.4799 165.673C95.8116 164.908 96.4014 164.291 97.1386 163.921C97.8758 163.551 98.7235 163.44 99.5345 163.625C99.7311 163.675 99.9031 163.798 100.014 163.971C100.124 164.143 100.161 164.353 100.112 164.55C100.075 164.748 99.9522 164.933 99.7802 165.044C99.6082 165.155 99.3993 165.192 99.2027 165.155C99.0307 165.118 97.5317 164.859 96.9051 166.302C96.8437 166.438 96.7454 166.561 96.6102 166.647C96.4874 166.734 96.3276 166.771 96.1802 166.771H96.1925ZM115.2 163.625C115.077 163.625 114.967 163.601 114.856 163.539C114.745 163.49 114.659 163.403 114.586 163.317C114.475 163.181 113.504 162.01 112.091 162.7C111.907 162.787 111.698 162.787 111.502 162.725C111.305 162.651 111.158 162.515 111.059 162.33C110.973 162.145 110.961 161.936 111.023 161.738C111.084 161.541 111.219 161.381 111.403 161.294C112.153 160.936 113.001 160.838 113.799 161.035C114.61 161.232 115.323 161.701 115.814 162.367C115.9 162.478 115.962 162.626 115.974 162.762C115.986 162.91 115.962 163.058 115.9 163.181C115.839 163.317 115.741 163.428 115.605 163.502C115.483 163.576 115.335 163.625 115.188 163.625H115.2ZM105.997 196.681C101.463 196.681 100.739 191.723 100.788 191.723C100.739 191.451 100.788 191.18 100.911 190.933C101.033 190.687 101.242 190.502 101.488 190.378C101.894 190.169 102.336 190.02 102.79 189.959C104.744 189.613 110.543 189.737 110.912 191.834C111.256 193.819 108.872 196.681 105.997 196.681ZM102.373 191.686C102.655 193.018 103.466 195.003 105.887 195.115C107.73 195.213 109.474 193.277 109.401 192.191C109.18 191.994 108.233 191.599 106.304 191.439C104.388 191.279 102.864 191.464 102.373 191.686Z" fill="#000090"/>
<path d="M101.537 191.587C101.808 193.153 102.766 195.756 105.825 195.891C108.221 196.002 110.396 193.548 110.113 191.969C109.843 190.403 101.267 190.008 101.525 191.575L101.537 191.587ZM66.5079 203.748C62.3795 203.748 52.071 189.28 46.5297 175.651C39.256 173.468 37.8922 163.28 43.2737 158.803C41.2464 152.759 44.7113 145.346 51.3338 144.507C48.9502 136.33 54.6758 128.115 63.1782 128.843C65.9795 121.368 75.8089 116.694 82.2963 121.874C87.0021 115.67 96.4997 115.337 100.493 119.247C107.754 114.214 117.436 120.036 116.588 126.191C125.791 126.586 129.244 132.457 126.639 140.116C131.603 146.604 124.685 158.013 112.509 154.165C109.241 160.184 97.6792 159.358 94.0423 155.189C90.1966 158.716 83.2178 160.073 79.1386 157.729C79.3843 159.074 79.2737 160.455 78.8314 161.75C77.4062 165.734 72.5406 167.622 72.6266 167.622C67.3802 170.101 72.1106 178.957 70.9802 181.621C70.9188 181.769 70.8205 181.917 70.6853 182.016C70.5625 182.127 70.4027 182.201 70.243 182.225C69.3829 182.398 68.4246 181.571 66.0778 179.339C65.2546 178.562 64.4068 177.748 63.7925 177.267C61.2369 178.648 64.886 189.108 65.869 192.191C67.7734 198.161 68.7932 201.59 67.8225 203.07C67.6751 203.292 67.4785 203.465 67.2451 203.576C67.0116 203.687 66.7536 203.761 66.4956 203.748H66.5079ZM53.1154 144.939C53.1645 145.062 53.1768 145.186 53.1645 145.309C53.1522 145.432 53.1031 145.556 53.0416 145.654C52.9679 145.753 52.8819 145.839 52.7713 145.901C52.6608 145.963 52.5379 145.987 52.415 146C46.0874 146.135 42.7454 153.277 44.9324 158.79C44.9939 158.951 45.0062 159.136 44.957 159.296C44.9079 159.469 44.8096 159.604 44.6621 159.715C39.7106 163.268 40.755 172.592 47.3038 174.245C47.4266 174.282 47.5372 174.331 47.6232 174.418C47.7215 174.504 47.7829 174.603 47.8321 174.714C53.8894 189.774 64.0874 202.379 66.5201 202.182C67.1959 201.467 65.5126 196.163 64.3945 192.66C62.4041 186.394 60.3399 179.906 61.9249 177.033C62.1092 176.687 62.3672 176.379 62.6744 176.132C62.9816 175.885 63.3502 175.713 63.7311 175.626C63.8416 175.602 63.9399 175.589 64.0505 175.614C64.1611 175.626 64.2594 175.676 64.3454 175.737C65.7338 176.65 68.2157 179.376 69.6164 180.437C69.5672 177.341 66.1024 168.991 71.9632 166.228C77.1236 163.786 79.114 160.332 76.6444 155.127C76.5952 155.028 76.5584 154.93 76.5461 154.819C76.5461 154.708 76.5461 154.609 76.5829 154.498C76.6198 154.399 76.669 154.301 76.7427 154.227C76.8164 154.14 76.9024 154.079 77.0007 154.029C77.099 153.98 77.1973 153.955 77.3079 153.955C77.4184 153.955 77.5167 153.968 77.615 154.005C77.7133 154.042 77.7993 154.103 77.8853 154.177C77.9591 154.251 78.0205 154.35 78.0573 154.449C80.1952 158.975 89.5823 157.816 93.5509 153.474C93.6369 153.376 93.7352 153.314 93.858 153.265C93.9686 153.215 94.1038 153.203 94.2266 153.215C94.3495 153.228 94.4724 153.277 94.5707 153.351C94.669 153.425 94.755 153.511 94.8164 153.622C96.9174 157.483 108.934 158.84 111.367 152.919C111.44 152.734 111.588 152.586 111.772 152.5C111.956 152.413 112.165 152.413 112.35 152.475C123.616 156.484 129.747 146.111 125.152 140.795C125.066 140.684 125.005 140.56 124.98 140.425C124.956 140.289 124.98 140.141 125.017 140.018C127.696 132.753 124.501 127.733 115.605 127.733C115.483 127.733 115.36 127.708 115.249 127.646C115.139 127.585 115.04 127.511 114.967 127.412C114.893 127.313 114.844 127.19 114.831 127.067C114.807 126.943 114.831 126.82 114.868 126.697C116.552 121.627 107.41 115.732 100.874 120.9C100.714 121.023 100.505 121.085 100.309 121.06C100.1 121.035 99.9154 120.937 99.7925 120.776C96.6717 116.953 87.1618 117.138 83.0949 123.453C83.0335 123.551 82.9475 123.625 82.8614 123.687C82.7632 123.749 82.6649 123.786 82.5543 123.798C82.4437 123.81 82.3331 123.798 82.2225 123.773C82.112 123.736 82.0137 123.687 81.9399 123.613C76.2512 118.26 66.7167 122.824 64.4806 129.941C64.4314 130.113 64.3085 130.261 64.1611 130.36C64.0014 130.459 63.8171 130.496 63.6451 130.471C55.6341 129.373 50.314 137.378 53.1522 144.939H53.1154Z" fill="#000090"/>
<path d="M72.2703 166.906C66.385 169.681 71.2137 179.018 70.243 181.312C69.7884 182.386 65.7338 177.6 63.9031 176.379C57.4771 178.032 70.7836 202.626 66.557 202.959C63.301 203.206 52.8451 189.305 47.0826 174.997C39.8826 173.172 38.7154 162.984 44.1829 159.074C41.8362 153.203 45.3502 145.358 52.3782 145.21C49.3188 137.082 55.1058 128.51 63.6942 129.694C66.041 122.256 76.1775 117.162 82.4191 123.033C86.7072 116.373 96.856 115.978 100.37 120.295C107.484 114.683 117.534 121.085 115.593 126.956C125.349 126.956 128.47 132.827 125.742 140.277C130.816 146.148 124.182 157.507 112.079 153.203C109.352 159.863 96.4751 158.297 94.1283 153.992C89.8403 158.692 79.7652 159.913 77.3447 154.769C79.7775 159.9 78.3768 164.045 72.2703 166.918V166.906Z" fill="#000090"/>
<path d="M67.073 192.524C65.7338 194.226 64.0014 195.707 61.7652 196.311C56.1993 197.828 49.9945 193.141 48.0164 185.864C46.4928 180.276 50.5351 173.875 56.3222 174.011C59.013 174.146 61.6177 174.973 63.9154 176.379" fill="white"/>
<path d="M47.2669 186.074C45.6205 179.993 50.0314 173.061 56.3468 173.234C59.1727 173.382 61.9003 174.233 64.3208 175.713C64.4191 175.75 64.5174 175.824 64.5911 175.898C64.6649 175.984 64.7263 176.083 64.7509 176.182C64.7877 176.28 64.8 176.404 64.7877 176.502C64.7877 176.613 64.7386 176.724 64.6894 176.811C64.628 176.909 64.5543 176.983 64.4683 177.057C64.3823 177.119 64.2717 177.168 64.1734 177.193C64.0628 177.218 63.9522 177.218 63.8416 177.193C63.7311 177.168 63.6328 177.119 63.5468 177.057C61.372 175.713 58.8901 174.936 56.3345 174.8C51.0021 174.677 47.4389 180.646 48.7904 185.666C51.1864 194.51 60.3522 199.851 66.4833 192.043C66.5447 191.957 66.6307 191.895 66.7167 191.846C66.8027 191.797 66.901 191.76 67.0116 191.747C67.1099 191.747 67.2205 191.747 67.3188 191.772C67.4171 191.797 67.5154 191.846 67.5891 191.908C67.6751 191.969 67.7365 192.056 67.7857 192.142C67.8348 192.228 67.8717 192.327 67.884 192.438C67.884 192.537 67.884 192.648 67.8594 192.746C67.8348 192.845 67.7857 192.944 67.7242 193.018C60.8191 201.775 50.056 196.286 47.2792 186.074H47.2669Z" fill="#000090"/>
<path d="M61.4949 190.773C61.372 190.773 61.2614 190.748 61.1509 190.686C56.3222 188.269 58.0792 183.903 61.9372 183.989C61.3843 182.114 60.2171 181.078 58.4846 180.893C56.0765 180.634 53.6191 182.126 53.2997 182.965C53.2259 183.163 53.0785 183.311 52.8942 183.397C52.7099 183.483 52.4887 183.483 52.2922 183.409C52.0956 183.335 51.9481 183.187 51.8621 183.002C51.7761 182.817 51.7761 182.595 51.8498 182.398C52.9925 179.388 62.3672 176.342 63.7188 184.754C63.7433 184.877 63.7188 185.013 63.6819 185.136C63.6451 185.259 63.5713 185.37 63.473 185.457C63.3747 185.543 63.2642 185.605 63.1413 185.642C63.0184 185.679 62.8833 185.679 62.7604 185.642C61.2 185.284 60.1065 185.864 59.8362 186.604C59.529 187.455 60.3154 188.503 61.8389 189.268C61.9986 189.342 62.1338 189.478 62.2198 189.638C62.3058 189.798 62.3181 189.983 62.2812 190.156C62.2444 190.329 62.1461 190.489 61.9986 190.6C61.8512 190.711 61.6792 190.773 61.5072 190.76L61.4949 190.773Z" fill="#000090"/>
<path d="M47.6478 363.205H130.325V370.852H47.6478V363.205Z" fill="#CE0500"/>
<path d="M240.34 370.852H121.134L159.69 290.84C160.096 290.001 160.734 289.298 161.521 288.792C162.307 288.299 163.216 288.04 164.15 288.04H280.272L240.352 370.852H240.34Z" fill="#CE0500"/>
<path d="M246.52 370.852H138.311C137.476 370.852 136.653 370.642 135.915 370.235C135.178 369.828 134.564 369.236 134.122 368.533C133.679 367.818 133.421 367.004 133.372 366.165C133.323 365.326 133.495 364.488 133.863 363.723L168.979 290.865C169.384 290.026 170.011 289.311 170.81 288.817C171.596 288.324 172.505 288.065 173.439 288.065H281.66C282.496 288.065 283.319 288.275 284.056 288.682C284.793 289.089 285.408 289.668 285.85 290.384C286.292 291.099 286.55 291.913 286.599 292.74C286.648 293.578 286.476 294.417 286.12 295.169L251.005 368.027C250.599 368.866 249.973 369.582 249.174 370.087C248.388 370.581 247.466 370.852 246.532 370.852H246.52Z" fill="#18753C"/>
<path d="M213.604 337.599C211.663 337.599 209.771 337.019 208.161 335.946C206.552 334.861 205.298 333.331 204.561 331.531C203.824 329.73 203.627 327.756 204.008 325.857C204.389 323.945 205.323 322.193 206.687 320.824C208.051 319.455 209.795 318.518 211.7 318.136C213.604 317.753 215.57 317.951 217.352 318.691C219.145 319.431 220.669 320.689 221.75 322.305C222.831 323.92 223.397 325.82 223.397 327.769C223.397 330.371 222.364 332.875 220.521 334.713C218.678 336.551 216.197 337.587 213.604 337.599ZM213.604 319.505C211.982 319.505 210.385 319.986 209.033 320.898C207.682 321.811 206.625 323.094 205.999 324.611C205.372 326.116 205.212 327.781 205.532 329.384C205.851 330.988 206.638 332.456 207.78 333.615C208.935 334.774 210.397 335.564 211.995 335.872C213.592 336.193 215.251 336.032 216.749 335.403C218.248 334.774 219.539 333.714 220.448 332.357C221.357 331 221.836 329.397 221.836 327.769C221.836 325.573 220.964 323.476 219.428 321.935C217.88 320.38 215.791 319.517 213.616 319.517L213.604 319.505Z" fill="white"/>
</g>
<defs>
<clipPath id="clip0_1708_6946">
<rect width="486" height="371" fill="white"/>
</clipPath>
</defs>
</svg>
