<svg width="56" height="56" viewBox="0 0 56 56" fill="none" xmlns="http://www.w3.org/2000/svg">
<path fill-rule="evenodd" clip-rule="evenodd" d="M11.9 5.6002C11.514 5.6002 11.2 5.28618 11.2 4.9002C11.2 4.51418 11.514 4.2002 11.9 4.2002C12.286 4.2002 12.6 4.51418 12.6 4.9002C12.6 5.28618 12.286 5.6002 11.9 5.6002Z" fill="#CACAFB"/>
<path fill-rule="evenodd" clip-rule="evenodd" d="M4.90001 44.7994C4.51403 44.7994 4.20001 44.4854 4.20001 44.0994C4.20001 43.7134 4.51403 43.3994 4.90001 43.3994C5.28599 43.3994 5.60001 43.7134 5.60001 44.0994C5.60001 44.4854 5.28599 44.7994 4.90001 44.7994Z" fill="#CACAFB"/>
<path fill-rule="evenodd" clip-rule="evenodd" d="M53.9 40.6002C53.514 40.6002 53.2 40.2862 53.2 39.9002C53.2 39.5142 53.514 39.2002 53.9 39.2002C54.2859 39.2002 54.5999 39.5142 54.5999 39.9002C54.5999 40.2862 54.2859 40.6002 53.9 40.6002Z" fill="#CACAFB"/>
<path fill-rule="evenodd" clip-rule="evenodd" d="M42.7 4.1998C42.314 4.1998 42 3.88578 42 3.4998C42 3.11379 42.314 2.7998 42.7 2.7998C43.086 2.7998 43.4 3.11379 43.4 3.4998C43.4 3.88578 43.086 4.1998 42.7 4.1998Z" fill="#CACAFB"/>
<path fill-rule="evenodd" clip-rule="evenodd" d="M27.3 29.4004C24.9804 29.4004 23.1 31.2808 23.1 33.6004C23.1 35.155 23.9446 36.5123 25.2 37.2385V39.9004C25.2 41.0602 26.1402 42.0004 27.3 42.0004C28.4598 42.0004 29.4 41.0602 29.4 39.9004V37.2385C30.6554 36.5123 31.5 35.155 31.5 33.6004C31.5 31.2808 29.6196 29.4004 27.3 29.4004ZM27.3 36.4004C28.8464 36.4004 30.1 35.1468 30.1 33.6004C30.1 32.054 28.8464 30.8004 27.3 30.8004C25.7536 30.8004 24.5 32.054 24.5 33.6004C24.5 35.1468 25.7536 36.4004 27.3 36.4004ZM26.6 37.8004V39.9004C26.6 40.2594 26.8702 40.5552 27.2183 40.5957L27.3 40.6004C27.6866 40.6004 28 40.287 28 39.9004V37.8004H26.6Z" fill="#E1000F"/>
<path d="M41.1136 43.7649L41.05 44.4443H40.1954L40.05 42.9295C41.1045 42.8193 41.7954 42.5898 41.7954 41.8095C41.7954 41.3321 41.4318 41.0016 40.9591 41.0016C40.4773 41.0016 40.1773 41.2587 39.8409 41.7636L38.85 41.1485C39.3591 40.3315 40.05 39.9 41.0136 39.9C42.0863 39.9 43.05 40.6436 43.05 41.8095C43.05 42.8836 42.2409 43.5721 41.1136 43.7649Z" fill="#000091"/>
<path d="M41.4227 45.8213C41.4227 46.2528 41.05 46.62 40.6318 46.62C40.1954 46.62 39.8318 46.2528 39.8318 45.8213C39.8318 45.3898 40.1954 45.0226 40.6318 45.0226C41.05 45.0226 41.4227 45.3898 41.4227 45.8213Z" fill="#000091"/>
<path fill-rule="evenodd" clip-rule="evenodd" d="M27.3 7C34.1399 7 39.2 10.9596 39.2 16.9339C39.2 17.3205 38.8866 17.6339 38.5 17.6339C38.1134 17.6339 37.8 17.3205 37.8 16.9339C37.8 11.8184 33.4315 8.4 27.3 8.4C21.2536 8.4 16.9217 11.7241 16.8025 16.7217L16.8 16.9339V19.6H19.6C20.7598 19.6 21.7 20.5402 21.7 21.7V23.1C21.7 23.3454 21.6579 23.5811 21.5805 23.8H33.0195C32.9421 23.5811 32.9 23.3454 32.9 23.1V21.7C32.9 20.5402 33.8402 19.6 35 19.6V17.236C35 13.6275 31.7821 11.2 27.225 11.2C23.253 11.2 20.2283 13.076 19.5834 15.984C19.4997 16.3614 19.1259 16.5995 18.7484 16.5158C18.371 16.4321 18.1329 16.0583 18.2166 15.6809C19.021 12.0534 22.6542 9.8 27.225 9.8C32.4023 9.8 36.2792 12.6645 36.3972 17.0302L36.4 17.236V19.6H38.5C39.6598 19.6 40.6 20.5402 40.6 21.7V23.1C40.6 23.3454 40.5579 23.5811 40.4805 23.8H40.63C42.1407 23.8 43.3262 25.1454 43.3967 26.7887L43.4 26.9436V31.5C43.4 31.8866 43.0866 32.2 42.7 32.2C42.341 32.2 42.0451 31.9298 42.0047 31.5816L42 31.5V26.9436C42 26.0002 41.4131 25.2663 40.7245 25.2043L40.63 25.2H12.57C11.8732 25.2 11.2559 25.8929 11.2036 26.8163L11.2 26.9436V33.6H16.1C16.4866 33.6 16.8 33.9134 16.8 34.3C16.8 34.659 16.5298 34.9549 16.1816 34.9953L16.1 35H11.2V39.2H15.4L15.5234 39.2036C16.6257 39.2674 17.5 40.1816 17.5 41.3V46.2H34.1824C33.8078 45.3426 33.6 44.3955 33.6 43.4C33.6 39.534 36.734 36.4 40.6 36.4C44.466 36.4 47.6 39.534 47.6 43.4C47.6 47.266 44.466 50.4 40.6 50.4C38.3098 50.4 36.2766 49.3002 34.9995 47.6H12.57C11.0592 47.6 9.87376 46.2546 9.8033 44.6113L9.79999 44.4564V26.9436C9.79999 25.2827 10.9397 23.887 12.4293 23.8039L12.57 23.8H14.1195C14.0421 23.5811 14 23.3454 14 23.1V21.7C14 20.7821 14.5889 20.0017 15.4096 19.7161C15.4077 19.7047 15.406 19.6932 15.4047 19.6816L15.4 19.6V16.9339C15.4 10.9596 20.4601 7 27.3 7ZM38.5 23.8C38.8866 23.8 39.2 23.4866 39.2 23.1V21.7C39.2 21.3134 38.8866 21 38.5 21H35C34.6134 21 34.3 21.3134 34.3 21.7V23.1C34.3 23.4866 34.6134 23.8 35 23.8H38.5ZM20.3 23.1C20.3 23.4866 19.9866 23.8 19.6 23.8H16.1C15.7134 23.8 15.4 23.4866 15.4 23.1V21.7C15.4 21.3134 15.7134 21 16.1 21H19.6C19.9866 21 20.3 21.3134 20.3 21.7V23.1ZM11.2 44.4564V40.6H15.4C15.759 40.6 16.0548 40.8702 16.0953 41.2184L16.1 41.3V46.2H12.57L12.4755 46.1958C11.7869 46.1337 11.2 45.3998 11.2 44.4564ZM40.6 37.8C43.6928 37.8 46.2 40.3072 46.2 43.4C46.2 46.4928 43.6928 49 40.6 49C37.5072 49 35 46.4928 35 43.4C35 40.3072 37.5072 37.8 40.6 37.8Z" fill="#000091"/>
<path d="M43.4 34.3C43.4 34.6866 43.0866 35 42.7 35C42.3134 35 42 34.6866 42 34.3C42 33.9134 42.3134 33.6 42.7 33.6C43.0866 33.6 43.4 33.9134 43.4 34.3Z" fill="#000091"/>
<path d="M18.2 34.3C18.2 33.9134 18.5134 33.6 18.9 33.6C19.2866 33.6 19.6 33.9134 19.6 34.3C19.6 34.6866 19.2866 35 18.9 35C18.5134 35 18.2 34.6866 18.2 34.3Z" fill="#000091"/>
</svg>
