<svg width="74" height="74" viewBox="0 0 74 74" fill="none" xmlns="http://www.w3.org/2000/svg">
<path fill-rule="evenodd" clip-rule="evenodd" d="M69.375 20.35C68.865 20.35 68.45 19.935 68.45 19.425C68.45 18.9149 68.865 18.5 69.375 18.5C69.8851 18.5 70.3 18.9149 70.3 19.425C70.3 19.935 69.8851 20.35 69.375 20.35Z" fill="#CACAFB"/>
<path fill-rule="evenodd" clip-rule="evenodd" d="M4.62501 55.4999C4.11497 55.4999 3.70001 55.0849 3.70001 54.5749C3.70001 54.0648 4.11497 53.6499 4.62501 53.6499C5.13506 53.6499 5.55001 54.0648 5.55001 54.5749C5.55001 55.0849 5.13506 55.4999 4.62501 55.4999Z" fill="#CACAFB"/>
<path fill-rule="evenodd" clip-rule="evenodd" d="M67.525 59.2001C67.015 59.2001 66.6 58.7851 66.6 58.2751C66.6 57.765 67.015 57.3501 67.525 57.3501C68.0351 57.3501 68.45 57.765 68.45 58.2751C68.45 58.7851 68.0351 59.2001 67.525 59.2001Z" fill="#CACAFB"/>
<path d="M30.525 35.1499H26.825C26.3142 35.1499 25.9 35.564 25.9 36.0749V37.9249C25.9 38.4358 26.3142 38.8499 26.825 38.8499H30.525C31.0359 38.8499 31.45 38.4358 31.45 37.9249V36.0749C31.45 35.564 31.0359 35.1499 30.525 35.1499Z" fill="#E1000F"/>
<path d="M34.225 35.1499C34.6994 35.1499 35.0904 35.507 35.1438 35.967L35.15 36.0749V36.9999H37.925C38.3994 36.9999 38.7904 37.357 38.8438 37.817L38.85 37.9249C38.85 38.3993 38.4929 38.7902 38.0329 38.8437L37.925 38.8499H34.225C33.7507 38.8499 33.3597 38.4928 33.3062 38.0328L33.3 37.9249V36.0749C33.3 35.564 33.7142 35.1499 34.225 35.1499Z" fill="#E1000F"/>
<path d="M37.925 25.8999C38.4359 25.8999 38.85 26.314 38.85 26.8249C38.85 27.2993 38.4929 27.6902 38.0329 27.7437L37.925 27.7499H35.15V31.4499H37.925C38.3994 31.4499 38.7904 31.807 38.8438 32.267L38.85 32.3749C38.85 32.8493 38.4929 33.2402 38.0329 33.2937L37.925 33.2999H34.225C33.7507 33.2999 33.3597 32.9428 33.3062 32.4828L33.3 32.3749V26.8249C33.3 26.3505 33.6571 25.9596 34.1172 25.9061L34.225 25.8999H37.925Z" fill="#E1000F"/>
<path d="M37.925 40.6999C38.4359 40.6999 38.85 41.114 38.85 41.6249C38.85 42.0993 38.4929 42.4902 38.0329 42.5437L37.925 42.5499H35.15V46.2499H36.075V44.3999C36.075 43.9255 36.4321 43.5346 36.8921 43.4811L37 43.4749H37.925C38.4359 43.4749 38.85 43.889 38.85 44.3999C38.85 44.8743 38.4929 45.2652 38.0329 45.3187L37.925 45.3249V47.1749C37.925 47.6493 37.5679 48.0402 37.1079 48.0937L37 48.0999H34.225C33.7507 48.0999 33.3597 47.7428 33.3062 47.2828L33.3 47.1749V41.6249C33.3 41.1505 33.6571 40.7596 34.1172 40.7061L34.225 40.6999H37.925Z" fill="#E1000F"/>
<path fill-rule="evenodd" clip-rule="evenodd" d="M54.2955 25.8999H54.8608C57.7681 25.8999 60.125 28.2568 60.125 31.1642V33.009C60.125 34.3358 60.6865 35.6006 61.6705 36.4906L61.7393 36.5528C62.497 37.2382 62.5557 38.4081 61.8704 39.1659C61.5196 39.5536 61.0212 39.7749 60.4983 39.7749H48.6584C47.6367 39.7749 46.8084 38.9466 46.8084 37.9249C46.8084 37.4008 47.0307 36.9014 47.42 36.5505L47.6499 36.3356C48.5279 35.4614 49.025 34.271 49.025 33.0256V31.1704C49.025 28.2596 51.3847 25.8999 54.2955 25.8999ZM54.8608 27.7499H54.2955C52.4064 27.7499 50.875 29.2813 50.875 31.1704V33.0256C50.875 34.8729 50.0916 36.6335 48.7192 37.8701L48.6584 37.9249H60.4983L60.2376 37.6819C58.985 36.4538 58.275 34.7706 58.275 33.009V31.1642C58.275 29.2785 56.7464 27.7499 54.8608 27.7499Z" fill="#E1000F"/>
<path d="M54.575 42.5499C56.3192 42.5499 57.35 41.5191 57.35 39.7749C57.35 39.264 56.9359 38.8499 56.425 38.8499C55.9142 38.8499 55.5 39.264 55.5 39.7749C55.5 40.4974 55.2975 40.6999 54.575 40.6999C53.8526 40.6999 53.65 40.4974 53.65 39.7749C53.65 39.264 53.2359 38.8499 52.725 38.8499C52.2142 38.8499 51.8 39.264 51.8 39.7749C51.8 41.5191 52.8308 42.5499 54.575 42.5499Z" fill="#E1000F"/>
<path fill-rule="evenodd" clip-rule="evenodd" d="M19.425 40.7H30.525C31.0359 40.7 31.45 41.1142 31.45 41.625V47.175C31.45 47.6859 31.0359 48.1 30.525 48.1H19.425C18.9141 48.1 18.5 47.6859 18.5 47.175V41.625C18.5 41.1142 18.9141 40.7 19.425 40.7ZM29.6 46.25V42.55H20.35V46.25H29.6Z" fill="#000091"/>
<path fill-rule="evenodd" clip-rule="evenodd" d="M19.425 31.45H23.125C23.6359 31.45 24.05 31.8642 24.05 32.375V37.925C24.05 38.4359 23.6359 38.85 23.125 38.85H19.425C18.9141 38.85 18.5 38.4359 18.5 37.925V32.375C18.5 31.8642 18.9141 31.45 19.425 31.45ZM22.2 37V33.3H20.35V37H22.2Z" fill="#000091"/>
<path d="M21.275 25.9H19.425C18.9141 25.9 18.5 26.3142 18.5 26.825V28.675C18.5 29.1859 18.9141 29.6 19.425 29.6H21.275C21.7859 29.6 22.2 29.1859 22.2 28.675V26.825C22.2 26.3142 21.7859 25.9 21.275 25.9Z" fill="#000091"/>
<path fill-rule="evenodd" clip-rule="evenodd" d="M30.525 25.9H24.975C24.4641 25.9 24.05 26.3142 24.05 26.825V29.6C24.05 30.1109 24.4641 30.525 24.975 30.525H26.825V32.375C26.825 32.8494 27.1821 33.2404 27.6421 33.2938L27.75 33.3H30.525C31.0359 33.3 31.45 32.8859 31.45 32.375V26.825C31.45 26.3142 31.0359 25.9 30.525 25.9ZM25.9 28.675V27.75H29.6V31.45H28.675V29.6C28.675 29.1257 28.3179 28.7347 27.8579 28.6813L27.75 28.675H25.9Z" fill="#000091"/>
<path d="M32.375 9.25005C32.8859 9.25005 33.3 9.66419 33.3 10.175C33.3 10.6859 32.8859 11.1 32.375 11.1H24.975C24.4641 11.1 24.05 10.6859 24.05 10.175C24.05 9.66419 24.4641 9.25005 24.975 9.25005H32.375Z" fill="#000091"/>
<path d="M54.575 20.35C57.0641 20.35 59.4593 21.0072 61.5631 22.2358C62.0042 22.4935 62.153 23.06 61.8953 23.5011C61.6377 23.9422 61.0712 24.091 60.6301 23.8333C58.8076 22.7689 56.7339 22.2 54.575 22.2C47.9338 22.2 42.55 27.5838 42.55 34.225C42.55 36.9714 43.4723 39.5745 45.141 41.6825C45.5447 42.1924 45.4619 42.6755 45.1365 43.3246L45.0138 43.5575L44.9088 43.7413L44.7194 44.0473L44.5592 44.2927L43.9615 45.1807L44.3501 45.0624L45.5919 44.6642L46.1511 44.4912L46.4674 44.3997L46.7442 44.3268C47.4337 44.157 47.7525 44.1823 48.1112 44.3738L48.2484 44.4533C50.1333 45.6219 52.3068 46.25 54.575 46.25C61.2162 46.25 66.6 40.8663 66.6 34.225C66.6 31.478 65.6773 28.8742 64.0077 26.766C63.6905 26.3655 63.7581 25.7837 64.1586 25.4666C64.5591 25.1494 65.1408 25.217 65.458 25.6175C67.3841 28.0497 68.45 31.0572 68.45 34.225C68.45 41.888 62.2379 48.1 54.575 48.1C52.0975 48.1 49.7138 47.4488 47.6198 46.2334L47.4127 46.1094L47.3752 46.1136C47.3273 46.1194 47.2713 46.1285 47.2076 46.1408L46.9143 46.2072L46.5716 46.3004L45.8361 46.5283L44.9769 46.8051L44.3608 46.9977L44.0088 47.1015L43.6987 47.1854L43.4261 47.2496C42.6598 47.4124 42.3395 47.3079 41.9286 46.9352C41.3749 46.433 41.4488 45.8993 41.8008 45.1917L41.9153 44.9725L42.0104 44.804L42.1792 44.5279L42.4027 44.185L43.0742 43.1838L43.2571 42.897L43.3919 42.6674L43.462 42.5352L43.2451 42.2363C41.6731 40.0175 40.7798 37.3794 40.7051 34.6043L40.7 34.225C40.7 26.5621 46.912 20.35 54.575 20.35Z" fill="#000091"/>
<path d="M41.625 5.55005C45.1265 5.55005 47.9789 8.32947 48.0962 11.8024L48.1 12.025V17.575C48.1 18.0859 47.6859 18.5 47.175 18.5C46.7006 18.5 46.3097 18.143 46.2562 17.6829L46.25 17.575V12.025C46.25 9.53795 44.2869 7.50937 41.8256 7.40432L41.625 7.40005H15.725C13.2379 7.40005 11.2093 9.36318 11.1043 11.8244L11.1 12.025V61.975C11.1 64.4621 13.0631 66.4907 15.5244 66.5958L15.725 66.6H41.625C44.1121 66.6 46.1407 64.6369 46.2457 62.1757L46.25 61.975V50.875C46.25 50.3642 46.6641 49.95 47.175 49.95C47.6494 49.95 48.0403 50.3071 48.0938 50.7672L48.1 50.875V61.975C48.1 65.4766 45.3206 68.329 41.8476 68.4463L41.625 68.45H15.725C12.2235 68.45 9.37108 65.6706 9.25375 62.1976L9.25 61.975V12.025C9.25 8.52351 12.0294 5.67113 15.5024 5.5538L15.725 5.55005H41.625Z" fill="#000091"/>
<path d="M37.925 61.05C38.4359 61.05 38.85 61.4642 38.85 61.975C38.85 62.4494 38.4929 62.8404 38.0329 62.8938L37.925 62.9H19.425C18.9141 62.9 18.5 62.4859 18.5 61.975C18.5 61.5007 18.8571 61.1097 19.3171 61.0563L19.425 61.05H37.925Z" fill="#000091"/>
</svg>
